<?xml version="1.0" encoding="utf-8"?>
<!-- Generator: Adobe Illustrator 22.1.0, SVG Export Plug-In . SVG Version: 6.00 Build 0)  -->
<svg version="1.1" id="Calque_1" xmlns="http://www.w3.org/2000/svg" xmlns:xlink="http://www.w3.org/1999/xlink" x="0px" y="0px"
	 viewBox="0 0 420.9 595.3" style="enable-background:new 0 0 420.9 595.3;" xml:space="preserve">
<style type="text/css">
	.st0{clip-path:url(#SVGID_2_);fill:#FCEA10;}
	.st1{clip-path:url(#SVGID_4_);}
	.st2{fill:#F29201;}
	.st3{fill:#E9511D;}
	.st4{fill:#FFFFFF;}
	.st5{fill:#CEE9F8;}
	.st6{fill:#F39200;}
	.st7{fill:#E94E1B;}
	.st8{fill:#6E3784;}
	.st9{display:none;}
	.st10{display:inline;fill:#F39200;}
	.st11{display:inline;fill:#E94E1B;}
	.st12{fill:#29235C;}
	.st13{fill:#FFFFFF;stroke:#FFFFFF;stroke-miterlimit:10;}
	.st14{display:inline;fill:#FFFFFF;}
	.st15{display:none;fill:#E94E1B;}
	.st16{fill:#6C6DB1;stroke:#E94E1B;stroke-miterlimit:10;}
	.st17{fill:#DE4875;}
	.st18{fill:#DEEDD7;}
	.st19{fill:#009FE3;}
	.st20{clip-path:url(#SVGID_4_);fill:#C9B918;}
</style>
<g id="rond">
	<defs>
		<rect id="SVGID_1_" width="420.9" height="595.3"/>
	</defs>
	<clipPath id="SVGID_2_">
		<use xlink:href="#SVGID_1_"  style="overflow:visible;"/>
	</clipPath>
	<path class="st0" d="M40.4,342.7c0-93.9,76.1-170.1,170.1-170.1s170.1,76.1,170.1,170.1s-76.1,170.1-170.1,170.1
		S40.4,436.6,40.4,342.7"/>
</g>
<g>
	<defs>
		<rect id="SVGID_3_" width="420.9" height="595.3"/>
	</defs>
	<clipPath id="SVGID_4_">
		<use xlink:href="#SVGID_3_"  style="overflow:visible;"/>
	</clipPath>
	<g id="tony" class="st1">
		<path id="right-arm" class="st2" d="M150.7,393c-1.4,0-2.8-0.4-4-1.3c-0.9-0.6-22.4-15.8-18.3-34.9c2.8-13,21.6-15.5,35.5-16.3
			c13.8-0.7,27,0.4,27.6,0.4c3.9,0.3,6.8,3.8,6.5,7.7s-3.8,6.8-7.7,6.5c-0.1,0-11.7-1-24-0.5c-20,0.8-23.7,4.8-24.1,5.2
			c-1,4.7,2.1,9.7,4.9,13c3.6,4.3,7.6,7.2,7.7,7.2c3.2,2.2,4,6.7,1.7,9.9C155.2,392,153,393,150.7,393"/>
		<g id="right-hand">
			<path id="rigth-finger5" class="st3" d="M157.7,380.7c0,0,6.8,3.4,9.9,10.6c1.3,3.1-2.6,7.5-2.6,7.5L157.7,380.7z"/>
			<path id="rigth-finger4" class="st2" d="M142.5,401.8c-2.1-3.9-7.2-15.1-1-21c0,0,6.6-3.7,15.3-0.3c3.7,1.4,6.3,4.7,7,8.6
				c1.1,6.5,6.9,19.3,7.5,25.9c0.2,2.9-3.9,3.8-4.9,1.1c0,0,0-0.1,0-0.1c-1.2-3.9-3.5-10.2-4.5-13.1c-0.9-2.9-6.6-1.3-6.6-1.3
				l-10.5,1.6C144,403.1,143,402.6,142.5,401.8"/>
			<path id="rigth-finger3" class="st2" d="M142.7,398.4l-0.1,3.4l1.7,5.6c0,0-1.6,0.6-1.7,1.4c0,0.8-0.9,2.5,2.4,3
				c3.2,0.4,5-0.1,5.4-1.6c0.4-1.6-2.4-11.2-2.4-11.2L142.7,398.4z"/>
			<path id="rigth-finger2" class="st2" d="M148.9,398.4l-0.1,3.4l1.7,5.6c0,0-1.6,0.6-1.7,1.4c0,0.8-0.9,2.5,2.4,3
				c3.2,0.4,5-0.1,5.4-1.6c0.4-1.6-2.4-11.2-2.4-11.2L148.9,398.4z"/>
			<path id="rigth-finger1" class="st2" d="M155.1,398.4l-0.1,3.4l1.7,5.6c0,0-1.6,0.6-1.7,1.4c0,0.8-0.9,2.5,2.4,3
				c3.2,0.4,5-0.1,5.4-1.6c0.4-1.6-2.4-11.2-2.4-11.2L155.1,398.4z"/>
		</g>
		<path id="left-arm" class="st2" d="M272.5,393c-2.2,0-4.5-1.1-5.8-3c-2.2-3.2-1.4-7.6,1.8-9.9c3.8-2.7,14.2-12.1,12.5-20.3
			c-0.3-0.4-4-4.4-24.1-5.2c-12.2-0.5-23.8,0.5-24,0.5c-3.9,0.3-7.3-2.6-7.7-6.5c-0.3-3.9,2.6-7.3,6.5-7.7c0.6,0,13.8-1.2,27.6-0.4
			c13.9,0.7,32.7,3.2,35.5,16.3c4.1,19.2-17.4,34.3-18.3,34.9C275.3,392.6,273.9,393,272.5,393"/>
		<g id="left-hand">
			<path id="left-finger5" class="st3" d="M265.5,380.7c0,0-6.8,3.4-9.9,10.6c-1.3,3.1,2.6,7.5,2.6,7.5L265.5,380.7z"/>
			<path id="left-finger4" class="st2" d="M280.7,401.8c2.1-3.9,7.2-15.1,1-21c0,0-6.6-3.7-15.3-0.3c-3.7,1.4-6.3,4.7-7,8.6
				c-1.1,6.5-6.9,19.3-7.5,25.9c-0.2,2.9,3.9,3.8,4.9,1.1c0,0,0-0.1,0-0.1c1.2-3.9,3.5-10.2,4.5-13.1c0.9-2.9,6.6-1.3,6.6-1.3
				l10.5,1.6C279.2,403.1,280.2,402.6,280.7,401.8"/>
			<path id="left-finger3" class="st2" d="M280.6,398.4l0.1,3.4l-1.7,5.6c0,0,1.6,0.6,1.7,1.4c0,0.8,0.9,2.5-2.4,3
				c-3.2,0.4-5-0.1-5.4-1.6c-0.4-1.6,2.4-11.2,2.4-11.2L280.6,398.4z"/>
			<path id="left-finger2" class="st2" d="M274.3,398.4l0.1,3.4l-1.7,5.6c0,0,1.6,0.6,1.7,1.4c0,0.8,0.9,2.5-2.4,3
				c-3.2,0.4-5-0.1-5.4-1.6c-0.4-1.6,2.4-11.2,2.4-11.2L274.3,398.4z"/>
			<path id="left-finger1" class="st2" d="M268.1,398.4l0.1,3.4l-1.7,5.6c0,0,1.6,0.6,1.7,1.4c0,0.8,0.9,2.5-2.4,3
				c-3.2,0.4-5-0.1-5.4-1.6c-0.4-1.6,2.4-11.2,2.4-11.2L268.1,398.4z"/>
		</g>
		<g id="tshirt">
			<path class="st4" d="M180.7,439.1l10.4-96.8l33-34.3c0,0,24.8,95.6,14.9,126.5L180.7,439.1z"/>
			<path class="st5" d="M191,342.3l-2.1,17.5c10.2-1,20.2-4.1,28.6-10.8c0,0,8.9,58.3,0.2,86.9l21.3-1.6
				c9.9-30.9-14.9-126.5-14.9-126.5L191,342.3z"/>
			<path class="st3" d="M232.9,355.1l-1.2-14.1c0.6-0.1,15.4-1.3,30-0.3l-1,14.1C247.2,353.9,233.1,355.1,232.9,355.1"/>
			<path class="st3" d="M190.3,355.1c-0.1,0-14.3-1.2-27.8-0.3l-1-14.1c14.7-1,29.4,0.2,30,0.3L190.3,355.1z"/>
		</g>
		<g id="ears">
			<g id="left-ear">
				<path class="st6" d="M244.9,297.9l1,16c0,0,9.1,2.7,12.1-7.3C259.7,301.2,255.7,293.4,244.9,297.9"/>
				<path class="st7" d="M247.3,300.8l0.6,9.9c0,0,5.6,1.7,7.5-4.5C256.5,302.8,254,298,247.3,300.8"/>
			</g>
			<g id="right-ear">
				<path id="right-ear-outside" class="st6" d="M182,289.3l-4.4,15.5c0,0-11.3,0.8-13-9.6C163.7,289.6,169.9,282.7,182,289.3"/>
				<path id="right-ear-inside" class="st7" d="M179,291.4l-3,10.4c0,0-7.6,0.5-8.7-6.4C166.7,291.5,170.9,286.9,179,291.4"/>
			</g>
		</g>
		<path id="mane" class="st8" d="M262.8,336.9c0.4-4.9-0.6-9.7-2.8-13.7c0.4-7.3-3.1-14.1-8.8-18c1.6-1.1,3-3.6,3.5-5.6
			c1.3-5.4-0.9-13.5-5.9-17.7c2.1-1.8,0-4.5,0.3-7.5c0.1-1.1,2-0.7,1.8-1.7c2.7-1,3.4-3.4,3.8-7.7c0.4-4.9-3.9-8.4-8.1-10.2
			c0.2-7.6-5.5-14.2-13.2-14.9c-4.6-0.4-9.2,2-12.2,5.1c-1.2-4.9-5.2-11.2-14.6-12.1c-11.5-1-22.1,1.8-23.1,13.3
			c-0.1,0.9-0.1,1.7-0.1,2.5c-0.6-0.1-1.3-0.3-1.9-0.3c-8-0.7-14.8,5.2-15.5,13.2c-0.5,5.4,5.6,10.4,8.5,11
			c-2.7,3.1-3.5,14.9-3.9,19.3c-0.3,3.4,0.2,6.7,1.5,9.7c-7.3,2.7-12.8,9.3-13.5,17.5c-0.7,7.4,2.6,14.2,8.2,18.3
			c-0.2,1-0.4,2-0.5,3.1c-1,11.3,7.3,21.4,18.7,22.4c2.7,0.2,5.3-0.1,7.8-0.8c3.2,8.5,11.1,14.9,20.7,15.7c4.9,0.4,9.7-0.6,13.7-2.8
			c0.3,0,0.6,0.1,0.8,0.1c11.3,1,21.4-7.3,22.4-18.7c0-0.1,0-0.2,0-0.3C257.1,352.3,262,345.3,262.8,336.9"/>
		<g id="full-face">
			<g id="reverse-face" class="st9">
				<path id="face-in_1_" class="st6" d="M201.2,325.7c-1.1-0.4-2.1-0.8-3-1.5c-3.7-2.7-10.1-8.9,0.6-14.5c0,0-4.1-16.2,0.4-21.6
					c4.5-5.4,11.2-1.8,15.2-2.2c4-0.4,11-11.8,20.9-3.5c21.8,27.4,2,23.1,0.9,31.7c-1.1,9.1,2.5,13.7-1.1,22.9
					c-6.8,17.4-25,23.4-26.9,1.7c0,0-1.2-8.1-2.4-10C204.6,326.9,201.2,325.7,201.2,325.7"/>
				<path id="reverse-face-in" class="st10" d="M237.5,324.5c1.1-0.4-0.9-4.8,0-5.5c3.7-2.7,3.2-6.5,3.4-15.5c0,0-0.9-2.2-5.4-7.6
					c-4.5-5.4-3.2-7.8-7.2-8.2c-4-0.4-26.5-12.1-23.9,0.5c6,28.6-3.1,17.4-8.9,27.9c-4.4,8,8.5,13.5,12.1,22.7
					c6.8,17.4,25,23.4,26.9,1.7c0,0,1.2-5.1,2.4-7c1.2-1.9,1.6-6.1,1.6-6.1"/>
				<path id="reverse-face-out" class="st11" d="M232.6,334.2c3.6-9.2,0-13.8,1.1-22.9c1-8.4,19.8-4.5,0.7-29.6
					c0.3,0.2,0.6,0.5,0.9,0.7c21.8,27.4,2,23.1,0.9,31.7c-1.1,9.1,2.5,13.7-1.1,22.9c-5.6,14.4-19,21-24.7,10.4
					C216.8,351.5,227.7,346.7,232.6,334.2"/>
			</g>
			<g id="face">
				<path id="face-in_3_" class="st6" d="M232.1,349.8c-0.4,0.5-1.3,1.6-2.7,2.7c0,0-2.6,2.1-6,3.5c-11.8,4.5-20.4-1.2-20.4-1.2
					c-4.2-2.6-6-6.4-7.2-9c-4.8-10.4,0.9-15.7-3.5-25.5c-3-6.8-6.8-6.5-8.3-11.7c-1.5-5.4,0.3-13.1,11.5-24.3c2.9-2.3,5.5-3.2,8-3.4
					c6.6-0.3,9.3,4.5,16.7,7.3c11.7,4.4,19.2-2.8,23.2,1.5c5.9,6.4-7.2,33.4-4.6,25.2c0.1,0.3,0.1,0.6,0.2,0.9
					c0.1,0.4,0.4,1.8,0.4,2.8c0,1.1-0.3,1.8-1,3.2c-0.5,1.1-1.3,2.6-2.6,4.3c0.3,1.3,2.3,9.7,0,16.8
					C234.4,347,232.1,349.8,232.1,349.8z"/>
				<path id="face-out" class="st7" d="M197.6,342.6c-4.3-10.4,1.3-15.2-3.3-25c-3.2-6.8-7-6.9-8.4-12.2c-2-7.7,3.9-15.9,9.6-22
					c-0.4,0.3-0.7,0.5-1.1,0.8c-12,12.4-12.9,19.8-11.5,24.2c1.6,5.3,6,5.2,9.5,11.9c5.2,10-1.8,15.9,2.3,25.5
					c4,9.3,16.6,17.3,26.8,13.9c6.1-2,9.4-7.5,10.7-9.9c-1.2,1.5-3.9,4.3-8.2,6c-1,0.4-7.4,2.7-14.3,0.1
					C201.7,352.7,198.6,344.9,197.6,342.6z"/>
			</g>
			<path id="snout" class="st12" d="M212.2,316.2c0,0,3.7,8.9,7.8,9.3c4,0.3,8.2-6.2,8.2-6.2S225.3,315.5,212.2,316.2"/>
			<path id="nose" class="st7" d="M240.1,315.6c-0.4-0.2-0.9-0.5-1.3-0.7c0,0,0.1-0.3,0.2-0.8c-25-4.5-35.7-0.6-35.7-0.6
				C211.8,312.7,224.4,312.6,240.1,315.6"/>
			<g id="eyes">
				<g id="left-eye">
					<polygon id="left-eyebrow" class="st12" points="235.3,289.3 232.9,293.1 246.4,295.5 					"/>
					<path id="left-eyeball" class="st12" d="M235.3,306.7c0.2-2-1.4-3.8-3.5-4s-4,1.3-4.2,3.3c-0.2,2,1.4,3.8,3.5,4
						C233.2,310.2,235.1,308.7,235.3,306.7"/>
					<circle class="st13" cx="230.8" cy="304.5" r="0.9"/>
				</g>
				<g id="right-eye">
					<polygon id="right-eyebrow" class="st12" points="199.1,290.3 222.2,286.4 218.6,291.6 					"/>
					<path id="right-eyeball" class="st12" d="M212.7,301.4c0.2-2.5-1.7-4.6-4.2-4.9c-2.6-0.2-4.9,1.6-5.1,4.1
						c-0.2,2.5,1.7,4.6,4.2,4.9C210.2,305.7,212.5,303.9,212.7,301.4"/>
					<circle class="st13" cx="206.8" cy="298.5" r="0.9"/>
				</g>
			</g>
			<g id="big_mouth" class="st9">
				<path id="big-mouth-out" class="st11" d="M232.5,330.8c-0.2,0.5-0.2,2.5-1.7,6.2c-1.5,3.7-5.4,3.1-11.1,0.3
					c-5.7-2.9-10.1-8.8-9.9-12.9c0.3-4.1,2.3-5.9,5.2-5.8c2.9,0.2,6.8,4.7,16.4,7.1c3.4,0.9,6,0.7,7.9,0.1c-1.5,1.4-3,2.3-3,2.3
					L232.5,330.8z"/>
				<path id="big-mouth-in" class="st14" d="M235.3,327.7c0,0-8.6-0.7-14.1-4.5c-5.4-3.8-9.8-4.1-10.1,1.2
					c-0.3,5.2,8.2,11.7,14,13.3c5.8,1.6,5.2-3.4,5.2-3.4l1-4.4L235.3,327.7z"/>
			</g>
			<g id="small-mouth">
				<path id="small-mouth-out" class="st15" d="M230.4,329.1c-0.5,1.1-1.1,1.9-1.6,2.4c-0.4,0.5-0.9,1.1-1.8,1.8
					c0,0-0.8,0.6-1.9,1.1c-0.9,0.4-4.2,1.7-7.5,1.1c-5.9-1-10.2-7.6-9.9-12.9c0.2-2.6,1-4.3,2.4-5.1c0.7-0.4,1.5-0.6,2.8-0.6
					c4.1,0,7.4,1.8,10,3.3c1,0.6,2.4,1.5,4.1,2.8c1.1,1.1,2.3,2.2,3.4,3.3C230.4,327.2,230.4,328.2,230.4,329.1z"/>
				<g>
					<path id="small-mouth-in" class="st16" d="M225.9,336.5c-3.3-2.1-6.2-3.7-8.4-4.7c-5-2.4-8.1-3.8-10.1-2.5
						c-1.7,1.1-1.7,3.5-1.8,3.9c-0.2,5.2,6.8,8.7,10.5,10.5c2,1,3.6,1.5,5.4,1.1c1.6-0.3,2.8-1.3,3.4-1.9c1.5-1.2,3.1-2.3,4.6-3.5
						C228.2,338.4,227,337.5,225.9,336.5z"/>
					<path id="tongue" class="st17" d="M218.2,344.6c-1.9-0.7-3.9-0.8-3.9-1.9v-1.2c0-1,1.1-1.9,2.4-1.9h1.5c1.3,0,2.4,0.8,2.4,1.9
						v1.2C219.4,345.1,220,345.3,218.2,344.6z"/>
					<path id="teeth" class="st18" d="M222.4,337.4h-1.6c-1.4,0-2.5-0.8-2.5-1.8v-1.1c0-0.4-0.6-2.2,1.1-1.4
						c1.3,0.6,5.1,1.6,5.4,2.5S223.8,337.4,222.4,337.4z"/>
				</g>
			</g>
		</g>
		<g id="band">
			<path class="st19" d="M248.9,281.8l-76.7,1c-1.5,0-2.7-1.2-2.7-2.6l-0.1-5c0-1.5,1.2-2.7,2.6-2.7l76.7-1c1.5,0,2.7,1.2,2.7,2.6
				l0.1,5C251.6,280.6,250.4,281.8,248.9,281.8"/>
			<path class="st4" d="M249.9,278.6l-78.7,1.1c-0.9,0-1.7-0.7-1.7-1.7l0-0.6c0-0.9,0.7-1.7,1.7-1.7l78.7-1.1c0.9,0,1.7,0.7,1.7,1.7
				l0,0.6C251.6,277.8,250.8,278.6,249.9,278.6"/>
		</g>
	</g>
	<path id="encoche" class="st20" d="M71.3,440.4c30.8,43.8,81.6,72.4,139.2,72.4c57.6,0,108.4-28.6,139.2-72.4H71.3z"/>
	<g id="logo-udl" class="st1">
		<path class="st4" d="M202.2,466.8v6.5c0,1-0.3,1.8-0.8,2.4c-0.6,0.6-1.2,0.8-2.1,0.8c-0.9,0-1.6-0.3-2.1-0.8
			c-0.6-0.6-0.8-1.3-0.8-2.3v-6.5h1.8v6.5c0,0.6,0.1,1,0.3,1.3c0.2,0.3,0.5,0.4,0.9,0.4c0.4,0,0.6-0.1,0.9-0.4
			c0.2-0.3,0.3-0.7,0.3-1.3v-6.5H202.2z"/>
		<polygon class="st4" points="210,476.3 208.3,476.3 205.5,470.2 205.5,470.3 205.5,476.3 203.7,476.3 203.7,466.8 205.5,466.8 
			208.2,472.9 208.3,472.9 208.3,466.8 210,466.8 		"/>
		<rect x="211.8" y="466.8" class="st4" width="1.8" height="9.5"/>
		<polygon class="st4" points="218.1,473.9 218.1,474.3 218.2,474.3 218.2,473.9 219.8,466.8 221.6,466.8 219.1,476.3 217.2,476.3 
			214.7,466.8 216.6,466.8 		"/>
		<polygon class="st4" points="227.5,472.2 224.4,472.2 224.4,474.8 228,474.8 228,476.3 222.7,476.3 222.7,466.8 228,466.8 
			228,468.3 224.4,468.3 224.4,470.7 227.5,470.7 		"/>
		<path class="st4" d="M231.1,472.5v3.8h-1.8v-9.5h3c0.9,0,1.6,0.2,2.1,0.7c0.5,0.5,0.8,1.2,0.8,2.1c0,0.5-0.1,0.9-0.3,1.3
			c-0.2,0.4-0.5,0.6-0.9,0.9c0.5,0.2,0.8,0.4,1,0.8c0.2,0.4,0.3,0.9,0.3,1.4v0.7c0,0.3,0,0.5,0.1,0.8c0.1,0.3,0.2,0.5,0.3,0.7v0.1
			h-1.8c-0.1-0.1-0.2-0.4-0.3-0.7c0-0.3-0.1-0.6-0.1-1V474c0-0.5-0.1-0.8-0.3-1.1c-0.2-0.3-0.4-0.4-0.8-0.4H231.1z M231.1,471.1h1.2
			c0.4,0,0.6-0.1,0.8-0.3c0.2-0.2,0.3-0.6,0.3-1c0-0.4-0.1-0.8-0.3-1c-0.2-0.3-0.5-0.4-0.8-0.4h-1.2V471.1z"/>
		<path class="st4" d="M240.8,473.8c0-0.4-0.1-0.7-0.3-0.9c-0.2-0.2-0.5-0.4-1-0.6c-0.9-0.3-1.6-0.7-2.1-1.2
			c-0.5-0.4-0.7-1.1-0.7-1.8c0-0.8,0.3-1.4,0.8-1.9c0.5-0.5,1.2-0.7,2.1-0.7c0.9,0,1.6,0.3,2.1,0.8c0.5,0.5,0.8,1.2,0.8,2.1l0,0
			h-1.7c0-0.4-0.1-0.8-0.3-1.1c-0.2-0.3-0.5-0.4-0.9-0.4c-0.4,0-0.6,0.1-0.8,0.3c-0.2,0.2-0.3,0.5-0.3,0.8c0,0.3,0.1,0.6,0.3,0.8
			c0.2,0.2,0.6,0.4,1.1,0.7c0.9,0.3,1.5,0.7,1.9,1.2c0.4,0.5,0.6,1.1,0.6,1.9c0,0.8-0.3,1.5-0.8,1.9c-0.5,0.5-1.2,0.7-2.1,0.7
			c-0.9,0-1.6-0.3-2.2-0.8c-0.6-0.5-0.9-1.3-0.9-2.3l0,0h1.7c0,0.6,0.1,1,0.4,1.3c0.2,0.3,0.6,0.4,1.1,0.4c0.4,0,0.6-0.1,0.8-0.3
			C240.7,474.5,240.8,474.2,240.8,473.8"/>
		<rect x="244.1" y="466.8" class="st4" width="1.8" height="9.5"/>
		<polygon class="st4" points="252.8,468.3 250.8,468.3 250.8,476.3 249,476.3 249,468.3 247,468.3 247,466.8 252.8,466.8 		"/>
		<path class="st4" d="M254,466.8v9.5h5.3v-1.5h-3.6v-2.7h3v-1.5h-3v-2.4h3.6v-1.5H254z M256.7,464.4l-1.1,1.7l1.4,0l1.5-1.7l0,0
			H256.7z"/>
		<path class="st4" d="M196.2,487.7v-9.5h2.7c0.9,0,1.7,0.4,2.3,1.1c0.6,0.7,0.9,1.7,0.9,2.9v1.6c0,1.2-0.3,2.1-0.9,2.9
			s-1.4,1.1-2.3,1.1H196.2z M198,479.7v6.6h0.9c0.5,0,0.9-0.2,1.1-0.7c0.3-0.5,0.4-1.1,0.4-1.8v-1.6c0-0.7-0.1-1.3-0.4-1.8
			s-0.6-0.7-1.1-0.7H198z"/>
		<polygon class="st4" points="208.5,483.6 205.5,483.6 205.5,486.3 209,486.3 209,487.7 203.7,487.7 203.7,478.2 209,478.2 
			209,479.7 205.5,479.7 205.5,482.1 208.5,482.1 		"/>
		<polygon class="st4" points="215.3,486.3 218.4,486.3 218.4,487.7 213.6,487.7 213.6,478.2 215.3,478.2 		"/>
		<polygon class="st4" points="221,482.3 221,482.3 222.5,478.2 224.4,478.2 221.8,484.4 221.8,487.7 220.1,487.7 220.1,484.2 
			217.5,478.2 219.5,478.2 		"/>
		<path class="st4" d="M231.2,484.3c0,1.1-0.3,2-0.9,2.6c-0.6,0.6-1.3,0.9-2.3,0.9c-1,0-1.7-0.3-2.3-0.9c-0.6-0.6-0.9-1.5-0.9-2.6
			v-2.7c0-1.1,0.3-2,0.9-2.6c0.6-0.6,1.3-1,2.3-1c1,0,1.7,0.3,2.3,1c0.6,0.6,0.9,1.5,0.9,2.6V484.3z M229.5,481.6
			c0-0.7-0.1-1.2-0.4-1.5c-0.2-0.3-0.6-0.5-1.1-0.5c-0.5,0-0.8,0.2-1,0.5c-0.2,0.3-0.3,0.9-0.3,1.5v2.7c0,0.7,0.1,1.2,0.4,1.6
			c0.2,0.3,0.6,0.5,1,0.5c0.5,0,0.8-0.2,1-0.5c0.2-0.3,0.4-0.9,0.4-1.6V481.6z"/>
		<polygon class="st4" points="239.1,487.7 237.3,487.7 234.6,481.7 234.5,481.7 234.5,487.7 232.7,487.7 232.7,478.2 234.5,478.2 
			237.3,484.3 237.3,484.3 237.3,478.2 239.1,478.2 		"/>
		<path class="st4" d="M188.6,478.2c0,3.5,0,7.9,0,8c0,5.7-4.6,10.4-10.4,10.4c0,0,0,0-0.1,0h0h0c0,0,0,0-0.1,0
			c-5.7,0-10.4-4.7-10.4-10.4c0,0,0-4.5,0-8h-1.9c0,3.4,0,7.9,0,8c0,6.8,5.5,12.3,12.3,12.3c0,0,0,0,0.1,0s0,0,0.1,0
			c6.8,0,12.3-5.5,12.3-12.3c0,0,0-4.5,0-8H188.6z"/>
		<path class="st4" d="M184.8,478.2c0,3.5,0,7.9,0,8c0,3.6-2.9,6.5-6.5,6.5c0,0,0,0-0.1,0h0h0c0,0,0,0-0.1,0c-3.6,0-6.5-2.9-6.5-6.5
			c0,0,0-4.5,0-8h-1.9l0,5.9c0,1.2,0,2,0,2c0,4.7,3.8,8.5,8.5,8.5c0,0,0,0,0.1,0c0,0,0,0,0.1,0c4.7,0,8.5-3.8,8.5-8.5c0,0,0-0.8,0-2
			l0-5.9H184.8z"/>
		<path class="st4" d="M180.9,478.2c0,3.5,0,7.9,0,7.9c0,1.5-1.2,2.7-2.7,2.8v0h0h0v0c-1.5,0-2.7-1.2-2.7-2.8c0,0,0-4.4,0-7.9h-1.9
			c0,3.5,0,7.9,0,7.9c0,2.6,2.1,4.7,4.7,4.7h0h0c2.6,0,4.7-2.1,4.7-4.7c0,0,0-4.4,0-7.9H180.9z"/>
		<rect x="165.9" y="474.4" class="st4" width="24.6" height="1.9"/>
		<rect x="165.9" y="470.6" class="st4" width="24.6" height="1.9"/>
		<path class="st4" d="M191.1,456.6c0,0,0-0.1-0.1-0.2c-0.1-0.1-0.3-0.2-0.4-0.3c-0.1-0.1-0.2-0.2-0.3-0.3c-0.1,0-0.2-0.2-0.2-0.3
			c-0.1,0-0.1-0.3-0.1-0.4c0,0,0-0.1-0.1-0.2c-0.1,0-0.2-0.1-0.3-0.2c-0.1-0.1-0.3-0.3-0.3-0.3s-0.1-0.4-0.1-0.5
			c-0.1-0.2-0.1-0.3-0.2-0.3c0-0.1-0.1-0.1-0.1-0.2c0,0-0.1,0-0.2,0.1c0,0-0.2-0.2-0.5-0.3c-0.2-0.1-0.5-0.3-0.6-0.3
			c-0.1,0-0.3-0.1-0.3-0.2c0,0-0.2,0-0.3,0c-0.1,0-0.4,0-0.6,0.1c-0.2,0-0.6,0.1-0.7,0.1c-0.2,0-0.2,0-0.5,0.1c0,0-0.2,0-0.3,0.1
			c-0.1,0-0.3,0.1-0.5,0.2c-0.2,0-0.4,0-0.6,0.1c-0.1,0-0.5,0.2-0.7,0.2c-0.1,0-0.2,0-0.2,0s0,0.1,0.1,0.2c0,0-0.1,0.1-0.2,0.2
			c-0.1,0.1-0.3,0.1-0.4,0.2c-0.2,0.1-0.5,0.2-0.5,0.2c0,0,0.1,0.1,0.2,0.2c0,0,0,0-0.1,0.1c-0.2,0.1-0.5,0.2-0.7,0.3
			c-0.2,0.1-0.4,0.2-0.5,0.3c-0.2,0.1-0.2,0.1-0.3,0.2c-0.1,0.1-0.1,0.1-0.1,0.1s0.1,0,0.2,0c0.1,0,0.2,0,0.2,0s0,0.1-0.1,0.1
			c-0.1,0.1-0.2,0.2-0.4,0.4c-0.1,0.1-0.2,0.2-0.4,0.3c-0.1,0.1-0.3,0.3-0.3,0.3l0.1,0.1l0,0.1c-0.1,0-0.1,0.1-0.2,0.1
			c-0.1,0-1.1,0.2-2.2,0.2c-1.8,0-2.4-0.3-3.3-0.3c-0.9,0-1.6,0.2-2.5,0.4c-0.2,0.1-0.3,0.1-0.4,0.2c-0.4,0.1-0.7,0.2-1.1,0.3
			c-1.2,0.5-3.3,2.2-3.9,2.4c-0.6,0.2-0.9,0.3-1.3,0.2c-0.4,0-0.6-0.2-0.6-0.2s-0.2-0.4-0.4-0.6c-0.3-0.2-1.1-0.5-1.1-0.5
			s-0.1,0.5,0.1,1c0.3,0.6,1,0.5,1.2,0.6c0.4,0.2,1.4,0.4,2.2,0c0.7-0.3,1.5-0.8,2-1.1c0.5-0.3,1.4-0.6,2.1-0.6
			c0,0.1-0.1,0.2-0.1,0.4c-0.2,0.6-0.9,1.9-1.1,2.1c-0.2,0.3-0.9,1.1-1,1.2c-0.1,0.1-0.4,0.2-0.8,0.3c-0.4,0.1-1.6,0.2-1.6,0.2
			s-0.2,1-0.5,1.7c-0.1,0.3-0.4,0.8-0.4,0.8s0.4,0.4,0.6,0.9c0.1,0.1,0.2,0.3,0.3,0.4v1.8h0v0.1h24.6v-1.9h0c0-0.1,0.1-0.5-0.2-0.6
			c-0.4-0.2-0.1-0.3-0.9-0.6c-0.2-0.1-0.7-0.2-0.8-0.3c-0.1-0.1-0.9-1.1-1.2-1.6c-0.4-0.4-1.1-1.4-1.1-1.4l-0.2-0.4l0-0.3
			c0,0,0.1-0.1,0.1-0.2c0.1-0.1,0.3-0.4,0.4-0.5c0.1-0.3,0.1,0,0.2-0.2c0.1-0.1,0.3-0.3,0.4-0.3c0.1-0.1,0.3-0.3,0.3-0.3
			s0,0.1,0,0.2c0,0,0.1-0.1,0.2-0.2c0.1-0.1,0.1-0.2,0.2-0.3c0.1-0.1,0.2-0.4,0.3-0.6c0.1-0.2,0.1-0.2,0.2-0.3c0,0,0.1,0.1,0.1,0.2
			c0,0,0.1-0.1,0.1-0.2c0-0.1,0.1-0.2,0.1-0.3c0.1-0.1,0.1-0.2,0.2-0.3c0.1,0,0.2-0.1,0.3-0.1c0.1,0,0.2,0.1,0.3,0.1
			c0.1,0,0.2,0,0.2,0.1c0.1,0.1,0.2,0.2,0.2,0.2s0,0,0.1-0.1c0.1,0,0.1,0,0.2-0.1c0.1-0.1,0.1-0.1,0.1-0.2c0.1-0.1,0.1-0.1,0.1-0.3
			c0-0.1,0-0.2,0-0.2c0.1-0.1,0.2-0.1,0.2-0.2c0.1-0.1,0-0.2,0.1-0.2c0,0,0-0.1,0-0.1s0.2-0.1,0.2-0.2c0-0.1,0-0.2,0.1-0.2
			C191.4,456.9,191.3,456.7,191.1,456.6 M178.3,462.9c0.2,0.1,0.6,0.3,1.1,0.4c0,0.1,0.1,0.3,0.1,0.5c0,0.6-0.7,1.4-0.7,1.4
			s0.3,0.8,0.4,0.9c0.1,0.1,0.4,0.3,0.5,0.5c0,0.1,0.1,0.1,0.1,0.2H178c0-0.2-0.1-0.3-0.2-0.4c-0.1-0.1-0.2-0.3-0.4-0.3
			c-0.8-0.3-0.8-0.2-1-0.3c-0.2-0.1-0.5-0.4-0.6-0.5c-0.1-0.2-0.2-0.9-0.2-1.5c0-0.4,0-0.7-0.1-0.9
			C176.3,462.7,177.4,462.5,178.3,462.9 M166.8,464.5c0.2-0.1,0.8,0.1,1.4,0c0.8-0.2,2-0.6,2.4-0.8c0.4-0.2,1-0.8,1.2-1
			c0.2-0.2,0.4-0.2,0.4-0.2s0.2,0.3,0.7,0.7c0.5,0.4,0.7,0.6,0.8,0.8c0.2,0.1,0.4,0.4,0.4,0.5c0.1,0.4,0.1,1.2,0.1,1.2
			s0.8,0.3,1,0.5c0.2,0.2,0.3,0.4,0.4,0.5h-7.9c0-0.1,0-0.4-0.3-0.5c-0.2-0.1-0.2-0.2-0.6-0.3c-0.2-0.1-0.3-0.1-0.4-0.4
			c-0.1-0.2-0.1-0.6-0.1-0.6S166.5,464.6,166.8,464.5 M186.3,465.3c0,0,0.8,0.3,1,0.6c0.1,0.2,0.8,0.4,0.8,0.4s0.2,0,0.5,0.3
			c0.2,0.2,0.3,0.3,0.4,0.3h-7.3c0-0.1,0-0.3-0.1-0.4c-0.1-0.1-0.2-0.2-0.3-0.3c-0.5-0.2-0.6-0.2-0.8-0.3c-0.1-0.1-0.2-0.5-0.2-0.5
			s0.9-0.9,1.1-1.1c0.2-0.3,0.3-0.4,0.4-0.5c0.7-0.1,1.4-0.2,1.7-0.3c0.1,0,0.1-0.1,0.2-0.1c0.1,0,0.1,0.1,0.2,0.1
			c0.4,0.2,1.3,0.6,1.6,0.9C185.8,464.5,186.3,465.3,186.3,465.3"/>
	</g>
</g>
</svg>
