<?xml version="1.0" encoding="utf-8"?>
<!-- Generator: Adobe Illustrator 22.1.0, SVG Export Plug-In . SVG Version: 6.00 Build 0)  -->
<svg version="1.1" id="Calque_1" xmlns="http://www.w3.org/2000/svg" xmlns:xlink="http://www.w3.org/1999/xlink" x="0px" y="0px"
	 viewBox="0 0 400 400" style="enable-background:new 0 0 400 400;" xml:space="preserve">
<style type="text/css">
	.st0{clip-path:url(#SVGID_2_);fill:#FCEA10;}
	.st1{clip-path:url(#SVGID_4_);}
	.st2{fill:#FFFFFF;}
	.st3{fill:#CEE9F8;}
	.st4{display:none;fill:#E9511D;}
	.st5{fill:#F29201;}
	.st6{display:none;fill:#F29201;}
	.st7{fill:#E9511D;}
	.st8{fill:#F39200;}
	.st9{fill:#E94E1B;}
	.st10{fill:#6E3784;}
	.st11{display:none;}
	.st12{display:inline;fill:#F39200;}
	.st13{display:inline;fill:#E94E1B;}
	.st14{fill:#29235C;}
	.st15{fill:#FFFFFF;stroke:#FFFFFF;stroke-miterlimit:10;}
	.st16{display:inline;fill:#FFFFFF;}
	.st17{display:none;fill:#E94E1B;}
	.st18{fill:#6C6DB1;stroke:#E94E1B;stroke-miterlimit:10;}
	.st19{fill:#DE4875;}
	.st20{fill:#DEEDD7;}
	.st21{fill:#009FE3;}
	.st22{clip-path:url(#SVGID_6_);fill:#C9B918;}
	.st23{clip-path:url(#SVGID_8_);}
</style>
<g id="rond">
	<g>
		<g>
			<defs>
				<rect id="SVGID_1_" x="-12" y="-140.6" width="420.9" height="595.3"/>
			</defs>
			<clipPath id="SVGID_2_">
				<use xlink:href="#SVGID_1_"  style="overflow:visible;"/>
			</clipPath>
			<path class="st0" d="M28.4,202.1C28.4,108.2,104.5,32,198.5,32s170.1,76.1,170.1,170.1s-76.1,170.1-170.1,170.1
				S28.4,296,28.4,202.1"/>
		</g>
	</g>
</g>
<g>
	<g>
		<g>
			<defs>
				<rect id="SVGID_3_" x="-12" y="-140" width="420.9" height="595.3"/>
			</defs>
			<clipPath id="SVGID_4_">
				<use xlink:href="#SVGID_3_"  style="overflow:visible;"/>
			</clipPath>
			<g id="tony-body" class="st1">
				<g id="arms">
					<g id="tshirt">
						<path class="st2" d="M168.7,304.1l10.4-96.8l33-34.3c0,0,24.8,95.6,14.9,126.5L168.7,304.1z"/>
						<path class="st3" d="M179,207.3l-2.1,17.5c10.2-1,20.2-4.1,28.6-10.8c0,0,8.9,58.3,0.2,86.9l21.3-1.6
							c9.9-30.9-14.9-126.5-14.9-126.5L179,207.3z"/>
						<path class="st4" d="M220.9,215.1l-1.2-14.1c0.6-0.1,15.4-1.3,30-0.3l-1,14.1C235.2,213.9,221.1,215.1,220.9,215.1"/>
						<path class="st4" d="M178.3,215.1c-0.1,0-14.3-1.2-27.8-0.3l-1-14.1c14.7-1,29.4,0.2,30,0.3L178.3,215.1z"/>
					</g>
					<path id="right-arm" class="st5" d="M138.7,258c-1.4,0-2.8-0.4-4-1.3c-0.9-0.6-22.4-15.8-18.3-34.9c2.8-13,21.6-15.5,35.5-16.3
						c13.8-0.7,27,0.4,27.6,0.4c3.9,0.3,6.8,3.8,6.5,7.7s-3.8,6.8-7.7,6.5c-0.1,0-11.7-1-24-0.5c-20,0.8-23.7,4.8-24.1,5.2
						c-1,4.7,2.1,9.7,4.9,13c3.6,4.3,7.6,7.2,7.7,7.2c3.2,2.2,4,6.7,1.7,9.9C143.2,257,141,258,138.7,258"/>
					<path id="right-arm-hide" class="st6" d="M167.6,274.7c-1.1,0.9-2.4,1.5-3.9,1.6c-1.1,0.1-27.3,2.1-36.4-15.3
						c-6.1-11.8,6.8-25.7,17-35.2c10.2-9.3,21.1-16.9,21.5-17.3c3.2-2.3,7.6-1.4,9.9,1.8c2.3,3.2,1.4,7.6-1.8,9.9
						c-0.1,0.1-9.7,6.7-18.8,14.9c-14.9,13.3-15.2,18.9-15.2,19.4c2.2,4.3,7.8,6.2,12,6.9c5.5,1,10.4,0.7,10.6,0.6
						c3.8-0.3,7.4,2.6,7.7,6.5C170.4,271.1,169.4,273.3,167.6,274.7"/>
					<g id="right-hand">
						<path id="rigth-finger5" class="st7" d="M145.7,245.7c0,0,6.8,3.4,9.9,10.6c1.3,3.1-2.6,7.5-2.6,7.5L145.7,245.7z"/>
						<path id="rigth-finger4" class="st5" d="M130.5,266.8c-2.1-3.9-7.2-15.1-1-21c0,0,6.6-3.7,15.3-0.3c3.7,1.4,6.3,4.7,7,8.6
							c1.1,6.5,6.9,19.3,7.5,25.9c0.2,2.9-3.9,3.8-4.9,1.1V281c-1.2-3.9-3.5-10.2-4.5-13.1c-0.9-2.9-6.6-1.3-6.6-1.3l-10.5,1.6
							C132,268.1,131,267.6,130.5,266.8"/>
						<path id="rigth-finger3" class="st5" d="M130.7,263.4l-0.1,3.4l1.7,5.6c0,0-1.6,0.6-1.7,1.4c0,0.8-0.9,2.5,2.4,3
							c3.2,0.4,5-0.1,5.4-1.6c0.4-1.6-2.4-11.2-2.4-11.2L130.7,263.4z"/>
						<path id="rigth-finger2" class="st5" d="M136.9,263.4l-0.1,3.4l1.7,5.6c0,0-1.6,0.6-1.7,1.4c0,0.8-0.9,2.5,2.4,3
							c3.2,0.4,5-0.1,5.4-1.6c0.4-1.6-2.4-11.2-2.4-11.2L136.9,263.4z"/>
						<path id="rigth-finger1" class="st5" d="M143.1,263.4l-0.1,3.4l1.7,5.6c0,0-1.6,0.6-1.7,1.4c0,0.8-0.9,2.5,2.4,3
							c3.2,0.4,5-0.1,5.4-1.6c0.4-1.6-2.4-11.2-2.4-11.2L143.1,263.4z"/>
					</g>
					<path id="left-arm" class="st5" d="M260.5,258c-2.2,0-4.5-1.1-5.8-3c-2.2-3.2-1.4-7.6,1.8-9.9c3.8-2.7,14.2-12.1,12.5-20.3
						c-0.3-0.4-4-4.4-24.1-5.2c-12.2-0.5-23.8,0.5-24,0.5c-3.9,0.3-7.3-2.6-7.7-6.5c-0.3-3.9,2.6-7.3,6.5-7.7
						c0.6,0,13.8-1.2,27.6-0.4c13.9,0.7,32.7,3.2,35.5,16.3c4.1,19.2-17.4,34.3-18.3,34.9C263.3,257.6,261.9,258,260.5,258"/>
					<g id="left-hand">
						<path id="left-finger5" class="st7" d="M253.5,245.7c0,0-6.8,3.4-9.9,10.6c-1.3,3.1,2.6,7.5,2.6,7.5L253.5,245.7z"/>
						<path id="left-finger4" class="st5" d="M268.7,266.8c2.1-3.9,7.2-15.1,1-21c0,0-6.6-3.7-15.3-0.3c-3.7,1.4-6.3,4.7-7,8.6
							c-1.1,6.5-6.9,19.3-7.5,25.9c-0.2,2.9,3.9,3.8,4.9,1.1V281c1.2-3.9,3.5-10.2,4.5-13.1c0.9-2.9,6.6-1.3,6.6-1.3l10.5,1.6
							C267.2,268.1,268.2,267.6,268.7,266.8"/>
						<path id="left-finger3" class="st5" d="M268.6,263.4l0.1,3.4l-1.7,5.6c0,0,1.6,0.6,1.7,1.4c0,0.8,0.9,2.5-2.4,3
							c-3.2,0.4-5-0.1-5.4-1.6c-0.4-1.6,2.4-11.2,2.4-11.2L268.6,263.4z"/>
						<path id="left-finger2" class="st5" d="M262.3,263.4l0.1,3.4l-1.7,5.6c0,0,1.6,0.6,1.7,1.4c0,0.8,0.9,2.5-2.4,3
							c-3.2,0.4-5-0.1-5.4-1.6c-0.4-1.6,2.4-11.2,2.4-11.2L262.3,263.4z"/>
						<path id="left-finger1" class="st5" d="M256.1,263.4l0.1,3.4l-1.7,5.6c0,0,1.6,0.6,1.7,1.4c0,0.8,0.9,2.5-2.4,3
							c-3.2,0.4-5-0.1-5.4-1.6c-0.4-1.6,2.4-11.2,2.4-11.2L256.1,263.4z"/>
					</g>
					<path id="left-arm-hide" class="st6" d="M246.6,280.1c-0.8-0.8-2.2-2.3-2.2-4.2c-0.2-5.3,8.9-7.4,11.4-14.8
						c0.7-2,1.1-5.2-0.7-9.9c-4.6-7.7-9.5-12.5-13.1-15.4c-7.5-6.2-10.4-10.1-16.8-15.1c-2.9-2.3-3.1-6.7-0.5-10
						c2.7-3.2,10.1-1.8,10.1-1.8c8.2,6.6,14.6,12.8,19.2,17.5c13,13.4,14.8,18.5,15.5,22.3c1.2,6.8-0.5,12.4-1.5,15.2
						c-0.6,1.9-5.5,16.5-15.4,17.5C250.2,281.4,248.1,280.7,246.6,280.1z"/>
				</g>
				<g id="ears">
					<g id="left-ear">
						<path class="st8" d="M232.9,162.9l1,16c0,0,9.1,2.7,12.1-7.3C247.7,166.2,243.7,158.4,232.9,162.9"/>
						<path class="st9" d="M235.3,165.8l0.6,9.9c0,0,5.6,1.7,7.5-4.5C244.5,167.8,242,163,235.3,165.8"/>
					</g>
					<g id="right-ear">
						<path id="right-ear-outside" class="st8" d="M170,154.3l-4.4,15.5c0,0-11.3,0.8-13-9.6C151.7,154.6,157.9,147.7,170,154.3"/>
						<path id="right-ear-inside" class="st9" d="M167,156.4l-3,10.4c0,0-7.6,0.5-8.7-6.4C154.7,156.5,158.9,151.9,167,156.4"/>
					</g>
				</g>
				<path id="mane" class="st10" d="M250.8,201.9c0.4-4.9-0.6-9.7-2.8-13.7c0.4-7.3-3.1-14.1-8.8-18c1.6-1.1,3-3.6,3.5-5.6
					c1.3-5.4-0.9-13.5-5.9-17.7c2.1-1.8,0-4.5,0.3-7.5c0.1-1.1,2-0.7,1.8-1.7c2.7-1,3.4-3.4,3.8-7.7c0.4-4.9-3.9-8.4-8.1-10.2
					c0.2-7.6-5.5-14.2-13.2-14.9c-4.6-0.4-9.2,2-12.2,5.1c-1.2-4.9-5.2-11.2-14.6-12.1c-11.5-1-22.1,1.8-23.1,13.3
					c-0.1,0.9-0.1,1.7-0.1,2.5c-0.6-0.1-1.3-0.3-1.9-0.3c-8-0.7-14.8,5.2-15.5,13.2c-0.5,5.4,5.6,10.4,8.5,11
					c-2.7,3.1-3.5,14.9-3.9,19.3c-0.3,3.4,0.2,6.7,1.5,9.7c-7.3,2.7-12.8,9.3-13.5,17.5c-0.7,7.4,2.6,14.2,8.2,18.3
					c-0.2,1-0.4,2-0.5,3.1c-1,11.3,7.3,21.4,18.7,22.4c2.7,0.2,5.3-0.1,7.8-0.8c3.2,8.5,11.1,14.9,20.7,15.7
					c4.9,0.4,9.7-0.6,13.7-2.8c0.3,0,0.6,0.1,0.8,0.1c11.3,1,21.4-7.3,22.4-18.7c0-0.1,0-0.2,0-0.3
					C245.1,217.3,250,210.3,250.8,201.9"/>
				<g id="full-face">
					<g id="reverse-face" class="st11">
						<path id="face-in_1_" class="st12" d="M189.2,185.7c-1.1-0.4-2.1-0.8-3-1.5c-3.7-2.7-10.1-8.9,0.6-14.5c0,0-4.1-16.2,0.4-21.6
							s11.2-1.8,15.2-2.2s11-11.8,20.9-3.5c21.8,27.4,2,23.1,0.9,31.7c-1.1,9.1,2.5,13.7-1.1,22.9c-6.8,17.4-25,23.4-26.9,1.7
							c0,0-1.2-8.1-2.4-10C192.6,186.9,189.2,185.7,189.2,185.7"/>
						<path id="reverse-face-in" class="st12" d="M225.5,184.5c1.1-0.4-0.9-4.8,0-5.5c3.7-2.7,3.2-6.5,3.4-15.5c0,0-0.9-2.2-5.4-7.6
							s-3.2-7.8-7.2-8.2s-26.5-12.1-23.9,0.5c6,28.6-3.1,17.4-8.9,27.9c-4.4,8,8.5,13.5,12.1,22.7c6.8,17.4,25,23.4,26.9,1.7
							c0,0,1.2-5.1,2.4-7s1.6-6.1,1.6-6.1"/>
						<path id="reverse-face-out" class="st13" d="M220.6,194.2c3.6-9.2,0-13.8,1.1-22.9c1-8.4,19.8-4.5,0.7-29.6
							c0.3,0.2,0.6,0.5,0.9,0.7c21.8,27.4,2,23.1,0.9,31.7c-1.1,9.1,2.5,13.7-1.1,22.9c-5.6,14.4-19,21-24.7,10.4
							C204.8,211.5,215.7,206.7,220.6,194.2"/>
					</g>
					<g id="face">
						<path id="face-in_3_" class="st8" d="M220.1,214.8c-0.4,0.5-1.3,1.6-2.7,2.7c0,0-2.6,2.1-6,3.5c-11.8,4.5-20.4-1.2-20.4-1.2
							c-4.2-2.6-6-6.4-7.2-9c-4.8-10.4,0.9-15.7-3.5-25.5c-3-6.8-6.8-6.5-8.3-11.7c-1.5-5.4,0.3-13.1,11.5-24.3
							c2.9-2.3,5.5-3.2,8-3.4c6.6-0.3,9.3,4.5,16.7,7.3c11.7,4.4,19.2-2.8,23.2,1.5c5.9,6.4-7.2,33.4-4.6,25.2
							c0.1,0.3,0.1,0.6,0.2,0.9c0.1,0.4,0.4,1.8,0.4,2.8c0,1.1-0.3,1.8-1,3.2c-0.5,1.1-1.3,2.6-2.6,4.3c0.3,1.3,2.3,9.7,0,16.8
							C222.4,212,220.1,214.8,220.1,214.8z"/>
						<path id="face-out" class="st9" d="M185.6,207.6c-4.3-10.4,1.3-15.2-3.3-25c-3.2-6.8-7-6.9-8.4-12.2c-2-7.7,3.9-15.9,9.6-22
							c-0.4,0.3-0.7,0.5-1.1,0.8c-12,12.4-12.9,19.8-11.5,24.2c1.6,5.3,6,5.2,9.5,11.9c5.2,10-1.8,15.9,2.3,25.5
							c4,9.3,16.6,17.3,26.8,13.9c6.1-2,9.4-7.5,10.7-9.9c-1.2,1.5-3.9,4.3-8.2,6c-1,0.4-7.4,2.7-14.3,0.1
							C189.7,217.7,186.6,209.9,185.6,207.6z"/>
					</g>
					<path id="snout" class="st14" d="M200.2,181.2c0,0,3.7,8.9,7.8,9.3c4,0.3,8.2-6.2,8.2-6.2S213.3,180.5,200.2,181.2"/>
					<path id="nose" class="st9" d="M228.1,180.6c-0.4-0.2-0.9-0.5-1.3-0.7c0,0,0.1-0.3,0.2-0.8c-25-4.5-35.7-0.6-35.7-0.6
						C199.8,177.7,212.4,177.6,228.1,180.6"/>
					<g id="eyes">
						<g id="left-eye">
							<polygon id="left-eyebrow" class="st14" points="223.3,154.3 220.9,158.1 234.4,160.5 							"/>
							<path id="left-eyeball" class="st14" d="M223.3,171.7c0.2-2-1.4-3.8-3.5-4s-4,1.3-4.2,3.3s1.4,3.8,3.5,4
								C221.2,175.2,223.1,173.7,223.3,171.7"/>
							<circle class="st15" cx="218.8" cy="169.5" r="0.9"/>
						</g>
						<g id="right-eye">
							<polygon id="right-eyebrow" class="st14" points="187.1,155.3 210.2,151.4 206.6,156.6 							"/>
							<path id="right-eyeball" class="st14" d="M200.7,166.4c0.2-2.5-1.7-4.6-4.2-4.9c-2.6-0.2-4.9,1.6-5.1,4.1
								c-0.2,2.5,1.7,4.6,4.2,4.9C198.2,170.7,200.5,168.9,200.7,166.4"/>
							<circle class="st15" cx="194.8" cy="163.5" r="0.9"/>
						</g>
					</g>
					<g id="big_mouth" class="st11">
						<path id="big-mouth-out" class="st13" d="M220.5,190.8c-0.2,0.5-0.2,2.5-1.7,6.2s-5.4,3.1-11.1,0.3
							c-5.7-2.9-10.1-8.8-9.9-12.9c0.3-4.1,2.3-5.9,5.2-5.8c2.9,0.2,6.8,4.7,16.4,7.1c3.4,0.9,6,0.7,7.9,0.1c-1.5,1.4-3,2.3-3,2.3
							L220.5,190.8z"/>
						<path id="big-mouth-in" class="st16" d="M223.3,187.7c0,0-8.6-0.7-14.1-4.5c-5.4-3.8-9.8-4.1-10.1,1.2
							c-0.3,5.2,8.2,11.7,14,13.3s5.2-3.4,5.2-3.4l1-4.4L223.3,187.7z"/>
					</g>
					<g id="small-mouth">
						<path id="small-mouth-out" class="st17" d="M218.4,189.1c-0.5,1.1-1.1,1.9-1.6,2.4c-0.4,0.5-0.9,1.1-1.8,1.8
							c0,0-0.8,0.6-1.9,1.1c-0.9,0.4-4.2,1.7-7.5,1.1c-5.9-1-10.2-7.6-9.9-12.9c0.2-2.6,1-4.3,2.4-5.1c0.7-0.4,1.5-0.6,2.8-0.6
							c4.1,0,7.4,1.8,10,3.3c1,0.6,2.4,1.5,4.1,2.8c1.1,1.1,2.3,2.2,3.4,3.3C218.4,187.2,218.4,188.2,218.4,189.1z"/>
						<g>
							<path id="small-mouth-in" class="st18" d="M213.9,201.5c-3.3-2.1-6.2-3.7-8.4-4.7c-5-2.4-8.1-3.8-10.1-2.5
								c-1.7,1.1-1.7,3.5-1.8,3.9c-0.2,5.2,6.8,8.7,10.5,10.5c2,1,3.6,1.5,5.4,1.1c1.6-0.3,2.8-1.3,3.4-1.9c1.5-1.2,3.1-2.3,4.6-3.5
								C216.2,203.4,215,202.5,213.9,201.5z"/>
							<path id="tongue" class="st19" d="M206.2,209.6c-1.9-0.7-3.9-0.8-3.9-1.9v-1.2c0-1,1.1-1.9,2.4-1.9h1.5
								c1.3,0,2.4,0.8,2.4,1.9v1.2C207.4,210.1,208,210.3,206.2,209.6z"/>
							<path id="teeth" class="st20" d="M210.4,202.4h-1.6c-1.4,0-2.5-0.8-2.5-1.8v-1.1c0-0.4-0.6-2.2,1.1-1.4
								c1.3,0.6,5.1,1.6,5.4,2.5S211.8,202.4,210.4,202.4z"/>
						</g>
					</g>
				</g>
				<g id="band">
					<path class="st21" d="M236.9,146.8l-76.7,1c-1.5,0-2.7-1.2-2.7-2.6l-0.1-5c0-1.5,1.2-2.7,2.6-2.7l76.7-1c1.5,0,2.7,1.2,2.7,2.6
						l0.1,5C239.6,145.6,238.4,146.8,236.9,146.8"/>
					<path class="st2" d="M237.9,143.6l-78.7,1.1c-0.9,0-1.7-0.7-1.7-1.7v-0.6c0-0.9,0.7-1.7,1.7-1.7l78.7-1.1
						c0.9,0,1.7,0.7,1.7,1.7v0.6C239.6,142.8,238.8,143.6,237.9,143.6"/>
				</g>
			</g>
		</g>
	</g>
	<g>
		<g>
			<defs>
				<rect id="SVGID_5_" x="-12" y="-140" width="420.9" height="595.3"/>
			</defs>
			<clipPath id="SVGID_6_">
				<use xlink:href="#SVGID_5_"  style="overflow:visible;"/>
			</clipPath>
			<path id="encoche" class="st22" d="M59.3,300.4c30.8,43.8,81.6,72.4,139.2,72.4s108.4-28.6,139.2-72.4H59.3z"/>
		</g>
	</g>
	<g>
		<g>
			<defs>
				<rect id="SVGID_7_" x="-12" y="-140" width="420.9" height="595.3"/>
			</defs>
			<clipPath id="SVGID_8_">
				<use xlink:href="#SVGID_7_"  style="overflow:visible;"/>
			</clipPath>
			<g id="logo-udl" class="st23">
				<path class="st2" d="M190.2,326.8v6.5c0,1-0.3,1.8-0.8,2.4c-0.6,0.6-1.2,0.8-2.1,0.8c-0.9,0-1.6-0.3-2.1-0.8
					c-0.6-0.6-0.8-1.3-0.8-2.3v-6.5h1.8v6.5c0,0.6,0.1,1,0.3,1.3s0.5,0.4,0.9,0.4s0.6-0.1,0.9-0.4c0.2-0.3,0.3-0.7,0.3-1.3v-6.5h1.6
					L190.2,326.8L190.2,326.8z"/>
				<polygon class="st2" points="198,336.3 196.3,336.3 193.5,330.2 193.5,330.3 193.5,336.3 191.7,336.3 191.7,326.8 193.5,326.8 
					196.2,332.9 196.3,332.9 196.3,326.8 198,326.8 				"/>
				<rect x="199.8" y="326.8" class="st2" width="1.8" height="9.5"/>
				<polygon class="st2" points="206.1,333.9 206.1,334.3 206.2,334.3 206.2,333.9 207.8,326.8 209.6,326.8 207.1,336.3 
					205.2,336.3 202.7,326.8 204.6,326.8 				"/>
				<polygon class="st2" points="215.5,332.2 212.4,332.2 212.4,334.8 216,334.8 216,336.3 210.7,336.3 210.7,326.8 216,326.8 
					216,328.3 212.4,328.3 212.4,330.7 215.5,330.7 				"/>
				<path class="st2" d="M219.1,332.5v3.8h-1.8v-9.5h3c0.9,0,1.6,0.2,2.1,0.7s0.8,1.2,0.8,2.1c0,0.5-0.1,0.9-0.3,1.3
					s-0.5,0.6-0.9,0.9c0.5,0.2,0.8,0.4,1,0.8s0.3,0.9,0.3,1.4v0.7c0,0.3,0,0.5,0.1,0.8s0.2,0.5,0.3,0.7v0.1h-1.8
					c-0.1-0.1-0.2-0.4-0.3-0.7c0-0.3-0.1-0.6-0.1-1V334c0-0.5-0.1-0.8-0.3-1.1c-0.2-0.3-0.4-0.4-0.8-0.4H219.1z M219.1,331.1h1.2
					c0.4,0,0.6-0.1,0.8-0.3c0.2-0.2,0.3-0.6,0.3-1s-0.1-0.8-0.3-1c-0.2-0.3-0.5-0.4-0.8-0.4h-1.2V331.1z"/>
				<path class="st2" d="M228.8,333.8c0-0.4-0.1-0.7-0.3-0.9c-0.2-0.2-0.5-0.4-1-0.6c-0.9-0.3-1.6-0.7-2.1-1.2
					c-0.5-0.4-0.7-1.1-0.7-1.8c0-0.8,0.3-1.4,0.8-1.9s1.2-0.7,2.1-0.7c0.9,0,1.6,0.3,2.1,0.8s0.8,1.2,0.8,2.1l0,0h-1.7
					c0-0.4-0.1-0.8-0.3-1.1c-0.2-0.3-0.5-0.4-0.9-0.4s-0.6,0.1-0.8,0.3c-0.2,0.2-0.3,0.5-0.3,0.8s0.1,0.6,0.3,0.8
					c0.2,0.2,0.6,0.4,1.1,0.7c0.9,0.3,1.5,0.7,1.9,1.2s0.6,1.1,0.6,1.9s-0.3,1.5-0.8,1.9c-0.5,0.5-1.2,0.7-2.1,0.7
					c-0.9,0-1.6-0.3-2.2-0.8c-0.6-0.5-0.9-1.3-0.9-2.3l0,0h1.7c0,0.6,0.1,1,0.4,1.3c0.2,0.3,0.6,0.4,1.1,0.4c0.4,0,0.6-0.1,0.8-0.3
					C228.7,334.5,228.8,334.2,228.8,333.8"/>
				<rect x="232.1" y="326.8" class="st2" width="1.8" height="9.5"/>
				<polygon class="st2" points="240.8,328.3 238.8,328.3 238.8,336.3 237,336.3 237,328.3 235,328.3 235,326.8 240.8,326.8 				"/>
				<path class="st2" d="M242,326.8v9.5h5.3v-1.5h-3.6v-2.7h3v-1.5h-3v-2.4h3.6v-1.5H242V326.8z M244.7,324.4l-1.1,1.7h1.4l1.5-1.7
					l0,0H244.7z"/>
				<path class="st2" d="M184.2,347.7v-9.5h2.7c0.9,0,1.7,0.4,2.3,1.1s0.9,1.7,0.9,2.9v1.6c0,1.2-0.3,2.1-0.9,2.9s-1.4,1.1-2.3,1.1
					h-2.7V347.7z M186,339.7v6.6h0.9c0.5,0,0.9-0.2,1.1-0.7c0.3-0.5,0.4-1.1,0.4-1.8v-1.6c0-0.7-0.1-1.3-0.4-1.8s-0.6-0.7-1.1-0.7
					H186z"/>
				<polygon class="st2" points="196.5,343.6 193.5,343.6 193.5,346.3 197,346.3 197,347.7 191.7,347.7 191.7,338.2 197,338.2 
					197,339.7 193.5,339.7 193.5,342.1 196.5,342.1 				"/>
				<polygon class="st2" points="203.3,346.3 206.4,346.3 206.4,347.7 201.6,347.7 201.6,338.2 203.3,338.2 				"/>
				<polygon class="st2" points="209,342.3 209,342.3 210.5,338.2 212.4,338.2 209.8,344.4 209.8,347.7 208.1,347.7 208.1,344.2 
					205.5,338.2 207.5,338.2 				"/>
				<path class="st2" d="M219.2,344.3c0,1.1-0.3,2-0.9,2.6c-0.6,0.6-1.3,0.9-2.3,0.9s-1.7-0.3-2.3-0.9s-0.9-1.5-0.9-2.6v-2.7
					c0-1.1,0.3-2,0.9-2.6c0.6-0.6,1.3-1,2.3-1s1.7,0.3,2.3,1c0.6,0.6,0.9,1.5,0.9,2.6V344.3z M217.5,341.6c0-0.7-0.1-1.2-0.4-1.5
					c-0.2-0.3-0.6-0.5-1.1-0.5s-0.8,0.2-1,0.5s-0.3,0.9-0.3,1.5v2.7c0,0.7,0.1,1.2,0.4,1.6c0.2,0.3,0.6,0.5,1,0.5
					c0.5,0,0.8-0.2,1-0.5s0.4-0.9,0.4-1.6L217.5,341.6L217.5,341.6z"/>
				<polygon class="st2" points="227.1,347.7 225.3,347.7 222.6,341.7 222.5,341.7 222.5,347.7 220.7,347.7 220.7,338.2 
					222.5,338.2 225.3,344.3 225.3,344.3 225.3,338.2 227.1,338.2 				"/>
				<path class="st2" d="M176.6,338.2c0,3.5,0,7.9,0,8c0,5.7-4.6,10.4-10.4,10.4c0,0,0,0-0.1,0l0,0l0,0c0,0,0,0-0.1,0
					c-5.7,0-10.4-4.7-10.4-10.4c0,0,0-4.5,0-8h-1.9c0,3.4,0,7.9,0,8c0,6.8,5.5,12.3,12.3,12.3c0,0,0,0,0.1,0s0,0,0.1,0
					c6.8,0,12.3-5.5,12.3-12.3c0,0,0-4.5,0-8H176.6z"/>
				<path class="st2" d="M172.8,338.2c0,3.5,0,7.9,0,8c0,3.6-2.9,6.5-6.5,6.5c0,0,0,0-0.1,0l0,0l0,0c0,0,0,0-0.1,0
					c-3.6,0-6.5-2.9-6.5-6.5c0,0,0-4.5,0-8h-1.9v5.9c0,1.2,0,2,0,2c0,4.7,3.8,8.5,8.5,8.5c0,0,0,0,0.1,0c0,0,0,0,0.1,0
					c4.7,0,8.5-3.8,8.5-8.5c0,0,0-0.8,0-2v-5.9H172.8z"/>
				<path class="st2" d="M168.9,338.2c0,3.5,0,7.9,0,7.9c0,1.5-1.2,2.7-2.7,2.8l0,0l0,0l0,0l0,0c-1.5,0-2.7-1.2-2.7-2.8
					c0,0,0-4.4,0-7.9h-1.9c0,3.5,0,7.9,0,7.9c0,2.6,2.1,4.7,4.7,4.7l0,0l0,0c2.6,0,4.7-2.1,4.7-4.7c0,0,0-4.4,0-7.9H168.9z"/>
				<rect x="153.9" y="334.4" class="st2" width="24.6" height="1.9"/>
				<rect x="153.9" y="330.6" class="st2" width="24.6" height="1.9"/>
				<path class="st2" d="M179.1,316.6c0,0,0-0.1-0.1-0.2s-0.3-0.2-0.4-0.3c-0.1-0.1-0.2-0.2-0.3-0.3c-0.1,0-0.2-0.2-0.2-0.3
					c-0.1,0-0.1-0.3-0.1-0.4c0,0,0-0.1-0.1-0.2c-0.1,0-0.2-0.1-0.3-0.2s-0.3-0.3-0.3-0.3s-0.1-0.4-0.1-0.5c-0.1-0.2-0.1-0.3-0.2-0.3
					c0-0.1-0.1-0.1-0.1-0.2c0,0-0.1,0-0.2,0.1c0,0-0.2-0.2-0.5-0.3c-0.2-0.1-0.5-0.3-0.6-0.3s-0.3-0.1-0.3-0.2c0,0-0.2,0-0.3,0
					s-0.4,0-0.6,0.1c-0.2,0-0.6,0.1-0.7,0.1c-0.2,0-0.2,0-0.5,0.1c0,0-0.2,0-0.3,0.1c-0.1,0-0.3,0.1-0.5,0.2c-0.2,0-0.4,0-0.6,0.1
					c-0.1,0-0.5,0.2-0.7,0.2c-0.1,0-0.2,0-0.2,0s0,0.1,0.1,0.2c0,0-0.1,0.1-0.2,0.2c-0.1,0.1-0.3,0.1-0.4,0.2
					c-0.2,0.1-0.5,0.2-0.5,0.2s0.1,0.1,0.2,0.2c0,0,0,0-0.1,0.1c-0.2,0.1-0.5,0.2-0.7,0.3c-0.2,0.1-0.4,0.2-0.5,0.3
					c-0.2,0.1-0.2,0.1-0.3,0.2s-0.1,0.1-0.1,0.1s0.1,0,0.2,0c0.1,0,0.2,0,0.2,0s0,0.1-0.1,0.1c-0.1,0.1-0.2,0.2-0.4,0.4
					c-0.1,0.1-0.2,0.2-0.4,0.3c-0.1,0.1-0.3,0.3-0.3,0.3l0.1,0.1v0.1c-0.1,0-0.1,0.1-0.2,0.1c-0.1,0-1.1,0.2-2.2,0.2
					c-1.8,0-2.4-0.3-3.3-0.3c-0.9,0-1.6,0.2-2.5,0.4c-0.2,0.1-0.3,0.1-0.4,0.2c-0.4,0.1-0.7,0.2-1.1,0.3c-1.2,0.5-3.3,2.2-3.9,2.4
					c-0.6,0.2-0.9,0.3-1.3,0.2c-0.4,0-0.6-0.2-0.6-0.2s-0.2-0.4-0.4-0.6c-0.3-0.2-1.1-0.5-1.1-0.5s-0.1,0.5,0.1,1
					c0.3,0.6,1,0.5,1.2,0.6c0.4,0.2,1.4,0.4,2.2,0c0.7-0.3,1.5-0.8,2-1.1c0.5-0.3,1.4-0.6,2.1-0.6c0,0.1-0.1,0.2-0.1,0.4
					c-0.2,0.6-0.9,1.9-1.1,2.1c-0.2,0.3-0.9,1.1-1,1.2s-0.4,0.2-0.8,0.3c-0.4,0.1-1.6,0.2-1.6,0.2s-0.2,1-0.5,1.7
					c-0.1,0.3-0.4,0.8-0.4,0.8s0.4,0.4,0.6,0.9c0.1,0.1,0.2,0.3,0.3,0.4v1.8l0,0v0.1h24.6V327l0,0c0-0.1,0.1-0.5-0.2-0.6
					c-0.4-0.2-0.1-0.3-0.9-0.6c-0.2-0.1-0.7-0.2-0.8-0.3c-0.1-0.1-0.9-1.1-1.2-1.6c-0.4-0.4-1.1-1.4-1.1-1.4l-0.2-0.4v-0.3
					c0,0,0.1-0.1,0.1-0.2c0.1-0.1,0.3-0.4,0.4-0.5c0.1-0.3,0.1,0,0.2-0.2c0.1-0.1,0.3-0.3,0.4-0.3c0.1-0.1,0.3-0.3,0.3-0.3
					s0,0.1,0,0.2c0,0,0.1-0.1,0.2-0.2c0.1-0.1,0.1-0.2,0.2-0.3c0.1-0.1,0.2-0.4,0.3-0.6s0.1-0.2,0.2-0.3c0,0,0.1,0.1,0.1,0.2
					c0,0,0.1-0.1,0.1-0.2s0.1-0.2,0.1-0.3c0.1-0.1,0.1-0.2,0.2-0.3c0.1,0,0.2-0.1,0.3-0.1s0.2,0.1,0.3,0.1s0.2,0,0.2,0.1
					c0.1,0.1,0.2,0.2,0.2,0.2s0,0,0.1-0.1c0.1,0,0.1,0,0.2-0.1c0.1-0.1,0.1-0.1,0.1-0.2c0.1-0.1,0.1-0.1,0.1-0.3c0-0.1,0-0.2,0-0.2
					c0.1-0.1,0.2-0.1,0.2-0.2c0.1-0.1,0-0.2,0.1-0.2v-0.1c0,0,0.2-0.1,0.2-0.2s0-0.2,0.1-0.2C179.4,316.9,179.3,316.7,179.1,316.6
					 M166.3,322.9c0.2,0.1,0.6,0.3,1.1,0.4c0,0.1,0.1,0.3,0.1,0.5c0,0.6-0.7,1.4-0.7,1.4s0.3,0.8,0.4,0.9c0.1,0.1,0.4,0.3,0.5,0.5
					c0,0.1,0.1,0.1,0.1,0.2H166c0-0.2-0.1-0.3-0.2-0.4c-0.1-0.1-0.2-0.3-0.4-0.3c-0.8-0.3-0.8-0.2-1-0.3c-0.2-0.1-0.5-0.4-0.6-0.5
					c-0.1-0.2-0.2-0.9-0.2-1.5c0-0.4,0-0.7-0.1-0.9C164.3,322.7,165.4,322.5,166.3,322.9 M154.8,324.5c0.2-0.1,0.8,0.1,1.4,0
					c0.8-0.2,2-0.6,2.4-0.8c0.4-0.2,1-0.8,1.2-1s0.4-0.2,0.4-0.2s0.2,0.3,0.7,0.7c0.5,0.4,0.7,0.6,0.8,0.8c0.2,0.1,0.4,0.4,0.4,0.5
					c0.1,0.4,0.1,1.2,0.1,1.2s0.8,0.3,1,0.5s0.3,0.4,0.4,0.5h-7.9c0-0.1,0-0.4-0.3-0.5c-0.2-0.1-0.2-0.2-0.6-0.3
					c-0.2-0.1-0.3-0.1-0.4-0.4c-0.1-0.2-0.1-0.6-0.1-0.6S154.5,324.6,154.8,324.5 M174.3,325.3c0,0,0.8,0.3,1,0.6
					c0.1,0.2,0.8,0.4,0.8,0.4s0.2,0,0.5,0.3c0.2,0.2,0.3,0.3,0.4,0.3h-7.3c0-0.1,0-0.3-0.1-0.4s-0.2-0.2-0.3-0.3
					c-0.5-0.2-0.6-0.2-0.8-0.3c-0.1-0.1-0.2-0.5-0.2-0.5s0.9-0.9,1.1-1.1c0.2-0.3,0.3-0.4,0.4-0.5c0.7-0.1,1.4-0.2,1.7-0.3
					c0.1,0,0.1-0.1,0.2-0.1c0.1,0,0.1,0.1,0.2,0.1c0.4,0.2,1.3,0.6,1.6,0.9C173.8,324.5,174.3,325.3,174.3,325.3"/>
			</g>
		</g>
	</g>
</g>
</svg>
