<?xml version="1.0" encoding="utf-8"?>
<!-- Generator: Adobe Illustrator 22.1.0, SVG Export Plug-In . SVG Version: 6.00 Build 0)  -->
<svg version="1.1" id="Calque_1" xmlns="http://www.w3.org/2000/svg" xmlns:xlink="http://www.w3.org/1999/xlink" x="0px" y="0px"
	 viewBox="0 0 400 400" style="enable-background:new 0 0 400 400;" xml:space="preserve">
<style type="text/css">
	.st0{clip-path:url(#SVGID_2_);fill:#FCEA10;}
	.st1{clip-path:url(#SVGID_4_);}
	.st2{fill:#FFFFFF;}
	.st3{fill:#CEE9F8;}
	.st4{display:none;fill:#E9511D;}
	.st5{fill:#F29201;}
	.st6{display:none;fill:#F29201;}
	.st7{fill:#E9511D;}
	.st8{fill:#F39200;}
	.st9{fill:#E94E1B;}
	.st10{fill:#6E3784;}
	.st11{display:none;}
	.st12{display:inline;fill:#F39200;}
	.st13{display:inline;fill:#E94E1B;}
	.st14{fill:#29235C;}
	.st15{fill:#FFFFFF;stroke:#FFFFFF;stroke-miterlimit:10;}
	.st16{display:inline;fill:#FFFFFF;}
	.st17{display:none;fill:#E94E1B;}
	.st18{fill:#6C6DB1;stroke:#E94E1B;stroke-miterlimit:10;}
	.st19{fill:#DE4875;}
	.st20{fill:#DEEDD7;}
	.st21{fill:#009FE3;}
	.st22{clip-path:url(#SVGID_6_);fill:#C9B918;}
	.st23{clip-path:url(#SVGID_8_);}
</style>
<g id="rond">
	<g>
		<defs>
			<rect id="SVGID_1_" x="2" y="-144.6" width="420.9" height="595.3"/>
		</defs>
		<clipPath id="SVGID_2_">
			<use xlink:href="#SVGID_1_"  style="overflow:visible;"/>
		</clipPath>
		<path class="st0" d="M42.4,198.1C42.4,104.2,118.5,28,212.5,28s170.1,76.1,170.1,170.1s-76.1,170.1-170.1,170.1
			S42.4,292,42.4,198.1"/>
	</g>
</g>
<g>
	<g>
		<defs>
			<rect id="SVGID_3_" x="2" y="-144" width="420.9" height="595.3"/>
		</defs>
		<clipPath id="SVGID_4_">
			<use xlink:href="#SVGID_3_"  style="overflow:visible;"/>
		</clipPath>
		<g id="tony-body" class="st1">
			<g id="arms">
				<g id="tshirt">
					<path class="st2" d="M182.7,300.1l10.4-96.8l33-34.3c0,0,24.8,95.6,14.9,126.5L182.7,300.1z"/>
					<path class="st3" d="M193,203.3l-2.1,17.5c10.2-1,20.2-4.1,28.6-10.8c0,0,8.9,58.3,0.2,86.9l21.3-1.6
						c9.9-30.9-14.9-126.5-14.9-126.5L193,203.3z"/>
					<path class="st4" d="M234.9,211.1l-1.2-14.1c0.6-0.1,15.4-1.3,30-0.3l-1,14.1C249.2,209.9,235.1,211.1,234.9,211.1"/>
					<path class="st4" d="M192.3,211.1c-0.1,0-14.3-1.2-27.8-0.3l-1-14.1c14.7-1,29.4,0.2,30,0.3L192.3,211.1z"/>
				</g>
				<path id="right-arm" class="st5" d="M152.7,254c-1.4,0-2.8-0.4-4-1.3c-0.9-0.6-22.4-15.8-18.3-34.9c2.8-13,21.6-15.5,35.5-16.3
					c13.8-0.7,27,0.4,27.6,0.4c3.9,0.3,6.8,3.8,6.5,7.7s-3.8,6.8-7.7,6.5c-0.1,0-11.7-1-24-0.5c-20,0.8-23.7,4.8-24.1,5.2
					c-1,4.7,2.1,9.7,4.9,13c3.6,4.3,7.6,7.2,7.7,7.2c3.2,2.2,4,6.7,1.7,9.9C157.2,253,155,254,152.7,254"/>
				<path id="right-arm-hide" class="st6" d="M206,263.5c-0.8,1.2-1.9,2.1-3.3,2.6c-1,0.4-25.6,9.8-39.2-4.3
					c-9.2-9.6-0.8-26.6,6.3-38.6c7.1-11.8,15.4-22.2,15.7-22.7c2.4-3.1,6.9-3.5,10-1.1c3.1,2.4,3.5,6.9,1.1,10
					c-0.1,0.1-7.4,9.2-13.8,19.6c-10.5,17-9.2,22.4-9.1,22.9c3.3,3.5,9.2,3.7,13.5,3.2c5.6-0.6,10.2-2.3,10.3-2.4
					c3.6-1.4,7.8,0.4,9.2,4.1C207.7,259.2,207.3,261.6,206,263.5"/>
				<g id="right-hand">
					<path id="rigth-finger5" class="st7" d="M159.7,241.7c0,0,6.8,3.4,9.9,10.6c1.3,3.1-2.6,7.5-2.6,7.5L159.7,241.7z"/>
					<path id="rigth-finger4" class="st5" d="M144.5,262.8c-2.1-3.9-7.2-15.1-1-21c0,0,6.6-3.7,15.3-0.3c3.7,1.4,6.3,4.7,7,8.6
						c1.1,6.5,6.9,19.3,7.5,25.9c0.2,2.9-3.9,3.8-4.9,1.1V277c-1.2-3.9-3.5-10.2-4.5-13.1c-0.9-2.9-6.6-1.3-6.6-1.3l-10.5,1.6
						C146,264.1,145,263.6,144.5,262.8"/>
					<path id="rigth-finger3" class="st5" d="M144.7,259.4l-0.1,3.4l1.7,5.6c0,0-1.6,0.6-1.7,1.4c0,0.8-0.9,2.5,2.4,3
						c3.2,0.4,5-0.1,5.4-1.6c0.4-1.6-2.4-11.2-2.4-11.2L144.7,259.4z"/>
					<path id="rigth-finger2" class="st5" d="M150.9,259.4l-0.1,3.4l1.7,5.6c0,0-1.6,0.6-1.7,1.4c0,0.8-0.9,2.5,2.4,3
						c3.2,0.4,5-0.1,5.4-1.6c0.4-1.6-2.4-11.2-2.4-11.2L150.9,259.4z"/>
					<path id="rigth-finger1" class="st5" d="M157.1,259.4l-0.1,3.4l1.7,5.6c0,0-1.6,0.6-1.7,1.4c0,0.8-0.9,2.5,2.4,3
						c3.2,0.4,5-0.1,5.4-1.6c0.4-1.6-2.4-11.2-2.4-11.2L157.1,259.4z"/>
				</g>
				<path id="left-arm" class="st5" d="M274.5,254c-2.2,0-4.5-1.1-5.8-3c-2.2-3.2-1.4-7.6,1.8-9.9c3.8-2.7,14.2-12.1,12.5-20.3
					c-0.3-0.4-4-4.4-24.1-5.2c-12.2-0.5-23.8,0.5-24,0.5c-3.9,0.3-7.3-2.6-7.7-6.5c-0.3-3.9,2.6-7.3,6.5-7.7
					c0.6,0,13.8-1.2,27.6-0.4c13.9,0.7,32.7,3.2,35.5,16.3c4.1,19.2-17.4,34.3-18.3,34.9C277.3,253.6,275.9,254,274.5,254"/>
				<g id="left-hand">
					<path id="left-finger5" class="st7" d="M267.5,241.7c0,0-6.8,3.4-9.9,10.6c-1.3,3.1,2.6,7.5,2.6,7.5L267.5,241.7z"/>
					<path id="left-finger4" class="st5" d="M282.7,262.8c2.1-3.9,7.2-15.1,1-21c0,0-6.6-3.7-15.3-0.3c-3.7,1.4-6.3,4.7-7,8.6
						c-1.1,6.5-6.9,19.3-7.5,25.9c-0.2,2.9,3.9,3.8,4.9,1.1V277c1.2-3.9,3.5-10.2,4.5-13.1c0.9-2.9,6.6-1.3,6.6-1.3l10.5,1.6
						C281.2,264.1,282.2,263.6,282.7,262.8"/>
					<path id="left-finger3" class="st5" d="M282.6,259.4l0.1,3.4l-1.7,5.6c0,0,1.6,0.6,1.7,1.4c0,0.8,0.9,2.5-2.4,3
						c-3.2,0.4-5-0.1-5.4-1.6c-0.4-1.6,2.4-11.2,2.4-11.2L282.6,259.4z"/>
					<path id="left-finger2" class="st5" d="M276.3,259.4l0.1,3.4l-1.7,5.6c0,0,1.6,0.6,1.7,1.4c0,0.8,0.9,2.5-2.4,3
						c-3.2,0.4-5-0.1-5.4-1.6c-0.4-1.6,2.4-11.2,2.4-11.2L276.3,259.4z"/>
					<path id="left-finger1" class="st5" d="M270.1,259.4l0.1,3.4l-1.7,5.6c0,0,1.6,0.6,1.7,1.4c0,0.8,0.9,2.5-2.4,3
						c-3.2,0.4-5-0.1-5.4-1.6c-0.4-1.6,2.4-11.2,2.4-11.2L270.1,259.4z"/>
				</g>
				<path id="left-arm-hide" class="st6" d="M208.8,245c-0.3-2,0.5-4.4,2.4-5.9c3.1-2.6,7.8-2.5,10.7,0.1
					c3.4,3.1,14.8,11.2,23.3,8.3c0.4-0.3,4.1-4.4,2.1-23.2c-1.2-11.4-3.9-22-3.9-22.2c-0.9-3.6,1.7-7.2,5.8-8.2
					c4.1-0.9,9.1,4.8,9.1,4.8s3.2,12.6,4.3,25.6c1.2,13,1.3,30.9-12.2,35.6c-19.7,6.9-38.8-10.6-39.5-11.4
					C209.6,247.5,209,246.3,208.8,245"/>
			</g>
			<g id="ears">
				<g id="left-ear">
					<path class="st8" d="M246.9,158.9l1,16c0,0,9.1,2.7,12.1-7.3C261.7,162.2,257.7,154.4,246.9,158.9"/>
					<path class="st9" d="M249.3,161.8l0.6,9.9c0,0,5.6,1.7,7.5-4.5C258.5,163.8,256,159,249.3,161.8"/>
				</g>
				<g id="right-ear">
					<path id="right-ear-outside" class="st8" d="M184,150.3l-4.4,15.5c0,0-11.3,0.8-13-9.6C165.7,150.6,171.9,143.7,184,150.3"/>
					<path id="right-ear-inside" class="st9" d="M181,152.4l-3,10.4c0,0-7.6,0.5-8.7-6.4C168.7,152.5,172.9,147.9,181,152.4"/>
				</g>
			</g>
			<path id="mane" class="st10" d="M264.8,197.9c0.4-4.9-0.6-9.7-2.8-13.7c0.4-7.3-3.1-14.1-8.8-18c1.6-1.1,3-3.6,3.5-5.6
				c1.3-5.4-0.9-13.5-5.9-17.7c2.1-1.8,0-4.5,0.3-7.5c0.1-1.1,2-0.7,1.8-1.7c2.7-1,3.4-3.4,3.8-7.7c0.4-4.9-3.9-8.4-8.1-10.2
				c0.2-7.6-5.5-14.2-13.2-14.9c-4.6-0.4-9.2,2-12.2,5.1c-1.2-4.9-5.2-11.2-14.6-12.1c-11.5-1-22.1,1.8-23.1,13.3
				c-0.1,0.9-0.1,1.7-0.1,2.5c-0.6-0.1-1.3-0.3-1.9-0.3c-8-0.7-14.8,5.2-15.5,13.2c-0.5,5.4,5.6,10.4,8.5,11
				c-2.7,3.1-3.5,14.9-3.9,19.3c-0.3,3.4,0.2,6.7,1.5,9.7c-7.3,2.7-12.8,9.3-13.5,17.5c-0.7,7.4,2.6,14.2,8.2,18.3
				c-0.2,1-0.4,2-0.5,3.1c-1,11.3,7.3,21.4,18.7,22.4c2.7,0.2,5.3-0.1,7.8-0.8c3.2,8.5,11.1,14.9,20.7,15.7
				c4.9,0.4,9.7-0.6,13.7-2.8c0.3,0,0.6,0.1,0.8,0.1c11.3,1,21.4-7.3,22.4-18.7c0-0.1,0-0.2,0-0.3
				C259.1,213.3,264,206.3,264.8,197.9"/>
			<g id="full-face">
				<g id="reverse-face" class="st11">
					<path id="face-in_1_" class="st12" d="M203.2,181.7c-1.1-0.4-2.1-0.8-3-1.5c-3.7-2.7-10.1-8.9,0.6-14.5c0,0-4.1-16.2,0.4-21.6
						s11.2-1.8,15.2-2.2c4-0.4,11-11.8,20.9-3.5c21.8,27.4,2,23.1,0.9,31.7c-1.1,9.1,2.5,13.7-1.1,22.9c-6.8,17.4-25,23.4-26.9,1.7
						c0,0-1.2-8.1-2.4-10C206.6,182.9,203.2,181.7,203.2,181.7"/>
					<path id="reverse-face-in" class="st12" d="M239.5,180.5c1.1-0.4-0.9-4.8,0-5.5c3.7-2.7,3.2-6.5,3.4-15.5c0,0-0.9-2.2-5.4-7.6
						s-3.2-7.8-7.2-8.2c-4-0.4-26.5-12.1-23.9,0.5c6,28.6-3.1,17.4-8.9,27.9c-4.4,8,8.5,13.5,12.1,22.7c6.8,17.4,25,23.4,26.9,1.7
						c0,0,1.2-5.1,2.4-7s1.6-6.1,1.6-6.1"/>
					<path id="reverse-face-out" class="st13" d="M234.6,190.2c3.6-9.2,0-13.8,1.1-22.9c1-8.4,19.8-4.5,0.7-29.6
						c0.3,0.2,0.6,0.5,0.9,0.7c21.8,27.4,2,23.1,0.9,31.7c-1.1,9.1,2.5,13.7-1.1,22.9c-5.6,14.4-19,21-24.7,10.4
						C218.8,207.5,229.7,202.7,234.6,190.2"/>
				</g>
				<g id="face">
					<path id="face-in_3_" class="st8" d="M234.1,210.8c-0.4,0.5-1.3,1.6-2.7,2.7c0,0-2.6,2.1-6,3.5c-11.8,4.5-20.4-1.2-20.4-1.2
						c-4.2-2.6-6-6.4-7.2-9c-4.8-10.4,0.9-15.7-3.5-25.5c-3-6.8-6.8-6.5-8.3-11.7c-1.5-5.4,0.3-13.1,11.5-24.3
						c2.9-2.3,5.5-3.2,8-3.4c6.6-0.3,9.3,4.5,16.7,7.3c11.7,4.4,19.2-2.8,23.2,1.5c5.9,6.4-7.2,33.4-4.6,25.2
						c0.1,0.3,0.1,0.6,0.2,0.9c0.1,0.4,0.4,1.8,0.4,2.8c0,1.1-0.3,1.8-1,3.2c-0.5,1.1-1.3,2.6-2.6,4.3c0.3,1.3,2.3,9.7,0,16.8
						C236.4,208,234.1,210.8,234.1,210.8z"/>
					<path id="face-out" class="st9" d="M199.6,203.6c-4.3-10.4,1.3-15.2-3.3-25c-3.2-6.8-7-6.9-8.4-12.2c-2-7.7,3.9-15.9,9.6-22
						c-0.4,0.3-0.7,0.5-1.1,0.8c-12,12.4-12.9,19.8-11.5,24.2c1.6,5.3,6,5.2,9.5,11.9c5.2,10-1.8,15.9,2.3,25.5
						c4,9.3,16.6,17.3,26.8,13.9c6.1-2,9.4-7.5,10.7-9.9c-1.2,1.5-3.9,4.3-8.2,6c-1,0.4-7.4,2.7-14.3,0.1
						C203.7,213.7,200.6,205.9,199.6,203.6z"/>
				</g>
				<path id="snout" class="st14" d="M214.2,177.2c0,0,3.7,8.9,7.8,9.3c4,0.3,8.2-6.2,8.2-6.2S227.3,176.5,214.2,177.2"/>
				<path id="nose" class="st9" d="M242.1,176.6c-0.4-0.2-0.9-0.5-1.3-0.7c0,0,0.1-0.3,0.2-0.8c-25-4.5-35.7-0.6-35.7-0.6
					C213.8,173.7,226.4,173.6,242.1,176.6"/>
				<g id="eyes">
					<g id="left-eye">
						<polygon id="left-eyebrow" class="st14" points="237.3,150.3 234.9,154.1 248.4,156.5 						"/>
						<path id="left-eyeball" class="st14" d="M237.3,167.7c0.2-2-1.4-3.8-3.5-4s-4,1.3-4.2,3.3s1.4,3.8,3.5,4
							C235.2,171.2,237.1,169.7,237.3,167.7"/>
						<circle class="st15" cx="232.8" cy="165.5" r="0.9"/>
					</g>
					<g id="right-eye">
						<polygon id="right-eyebrow" class="st14" points="201.1,151.3 224.2,147.4 220.6,152.6 						"/>
						<path id="right-eyeball" class="st14" d="M214.7,162.4c0.2-2.5-1.7-4.6-4.2-4.9c-2.6-0.2-4.9,1.6-5.1,4.1
							c-0.2,2.5,1.7,4.6,4.2,4.9C212.2,166.7,214.5,164.9,214.7,162.4"/>
						<circle class="st15" cx="208.8" cy="159.5" r="0.9"/>
					</g>
				</g>
				<g id="big_mouth" class="st11">
					<path id="big-mouth-out" class="st13" d="M234.5,186.8c-0.2,0.5-0.2,2.5-1.7,6.2s-5.4,3.1-11.1,0.3c-5.7-2.9-10.1-8.8-9.9-12.9
						c0.3-4.1,2.3-5.9,5.2-5.8c2.9,0.2,6.8,4.7,16.4,7.1c3.4,0.9,6,0.7,7.9,0.1c-1.5,1.4-3,2.3-3,2.3L234.5,186.8z"/>
					<path id="big-mouth-in" class="st16" d="M237.3,183.7c0,0-8.6-0.7-14.1-4.5c-5.4-3.8-9.8-4.1-10.1,1.2
						c-0.3,5.2,8.2,11.7,14,13.3c5.8,1.6,5.2-3.4,5.2-3.4l1-4.4L237.3,183.7z"/>
				</g>
				<g id="small-mouth">
					<path id="small-mouth-out" class="st17" d="M232.4,185.1c-0.5,1.1-1.1,1.9-1.6,2.4c-0.4,0.5-0.9,1.1-1.8,1.8
						c0,0-0.8,0.6-1.9,1.1c-0.9,0.4-4.2,1.7-7.5,1.1c-5.9-1-10.2-7.6-9.9-12.9c0.2-2.6,1-4.3,2.4-5.1c0.7-0.4,1.5-0.6,2.8-0.6
						c4.1,0,7.4,1.8,10,3.3c1,0.6,2.4,1.5,4.1,2.8c1.1,1.1,2.3,2.2,3.4,3.3C232.4,183.2,232.4,184.2,232.4,185.1z"/>
					<g>
						<path id="small-mouth-in" class="st18" d="M227.9,197.5c-3.3-2.1-6.2-3.7-8.4-4.7c-5-2.4-8.1-3.8-10.1-2.5
							c-1.7,1.1-1.7,3.5-1.8,3.9c-0.2,5.2,6.8,8.7,10.5,10.5c2,1,3.6,1.5,5.4,1.1c1.6-0.3,2.8-1.3,3.4-1.9c1.5-1.2,3.1-2.3,4.6-3.5
							C230.2,199.4,229,198.5,227.9,197.5z"/>
						<path id="tongue" class="st19" d="M220.2,205.6c-1.9-0.7-3.9-0.8-3.9-1.9v-1.2c0-1,1.1-1.9,2.4-1.9h1.5c1.3,0,2.4,0.8,2.4,1.9
							v1.2C221.4,206.1,222,206.3,220.2,205.6z"/>
						<path id="teeth" class="st20" d="M224.4,198.4h-1.6c-1.4,0-2.5-0.8-2.5-1.8v-1.1c0-0.4-0.6-2.2,1.1-1.4
							c1.3,0.6,5.1,1.6,5.4,2.5S225.8,198.4,224.4,198.4z"/>
					</g>
				</g>
			</g>
			<g id="band">
				<path class="st21" d="M250.9,142.8l-76.7,1c-1.5,0-2.7-1.2-2.7-2.6l-0.1-5c0-1.5,1.2-2.7,2.6-2.7l76.7-1c1.5,0,2.7,1.2,2.7,2.6
					l0.1,5C253.6,141.6,252.4,142.8,250.9,142.8"/>
				<path class="st2" d="M251.9,139.6l-78.7,1.1c-0.9,0-1.7-0.7-1.7-1.7v-0.6c0-0.9,0.7-1.7,1.7-1.7l78.7-1.1c0.9,0,1.7,0.7,1.7,1.7
					v0.6C253.6,138.8,252.8,139.6,251.9,139.6"/>
			</g>
		</g>
	</g>
	<g>
		<defs>
			<rect id="SVGID_5_" x="2" y="-144" width="420.9" height="595.3"/>
		</defs>
		<clipPath id="SVGID_6_">
			<use xlink:href="#SVGID_5_"  style="overflow:visible;"/>
		</clipPath>
		<path id="encoche" class="st22" d="M73.3,296.4c30.8,43.8,81.6,72.4,139.2,72.4s108.4-28.6,139.2-72.4H73.3z"/>
	</g>
	<g>
		<defs>
			<rect id="SVGID_7_" x="2" y="-144" width="420.9" height="595.3"/>
		</defs>
		<clipPath id="SVGID_8_">
			<use xlink:href="#SVGID_7_"  style="overflow:visible;"/>
		</clipPath>
		<g id="logo-udl" class="st23">
			<path class="st2" d="M204.2,322.8v6.5c0,1-0.3,1.8-0.8,2.4c-0.6,0.6-1.2,0.8-2.1,0.8c-0.9,0-1.6-0.3-2.1-0.8
				c-0.6-0.6-0.8-1.3-0.8-2.3v-6.5h1.8v6.5c0,0.6,0.1,1,0.3,1.3s0.5,0.4,0.9,0.4s0.6-0.1,0.9-0.4c0.2-0.3,0.3-0.7,0.3-1.3v-6.5h1.6
				V322.8z"/>
			<polygon class="st2" points="212,332.3 210.3,332.3 207.5,326.2 207.5,326.3 207.5,332.3 205.7,332.3 205.7,322.8 207.5,322.8
				210.2,328.9 210.3,328.9 210.3,322.8 212,322.8 			"/>
			<rect x="213.8" y="322.8" class="st2" width="1.8" height="9.5"/>
			<polygon class="st2" points="220.1,329.9 220.1,330.3 220.2,330.3 220.2,329.9 221.8,322.8 223.6,322.8 221.1,332.3 219.2,332.3
				216.7,322.8 218.6,322.8 			"/>
			<polygon class="st2" points="229.5,328.2 226.4,328.2 226.4,330.8 230,330.8 230,332.3 224.7,332.3 224.7,322.8 230,322.8
				230,324.3 226.4,324.3 226.4,326.7 229.5,326.7 			"/>
			<path class="st2" d="M233.1,328.5v3.8h-1.8v-9.5h3c0.9,0,1.6,0.2,2.1,0.7s0.8,1.2,0.8,2.1c0,0.5-0.1,0.9-0.3,1.3
				s-0.5,0.6-0.9,0.9c0.5,0.2,0.8,0.4,1,0.8s0.3,0.9,0.3,1.4v0.7c0,0.3,0,0.5,0.1,0.8s0.2,0.5,0.3,0.7v0.1h-1.8
				c-0.1-0.1-0.2-0.4-0.3-0.7c0-0.3-0.1-0.6-0.1-1V330c0-0.5-0.1-0.8-0.3-1.1c-0.2-0.3-0.4-0.4-0.8-0.4H233.1z M233.1,327.1h1.2
				c0.4,0,0.6-0.1,0.8-0.3c0.2-0.2,0.3-0.6,0.3-1s-0.1-0.8-0.3-1c-0.2-0.3-0.5-0.4-0.8-0.4h-1.2V327.1z"/>
			<path class="st2" d="M242.8,329.8c0-0.4-0.1-0.7-0.3-0.9c-0.2-0.2-0.5-0.4-1-0.6c-0.9-0.3-1.6-0.7-2.1-1.2
				c-0.5-0.4-0.7-1.1-0.7-1.8c0-0.8,0.3-1.4,0.8-1.9s1.2-0.7,2.1-0.7c0.9,0,1.6,0.3,2.1,0.8s0.8,1.2,0.8,2.1l0,0h-1.7
				c0-0.4-0.1-0.8-0.3-1.1c-0.2-0.3-0.5-0.4-0.9-0.4s-0.6,0.1-0.8,0.3c-0.2,0.2-0.3,0.5-0.3,0.8s0.1,0.6,0.3,0.8
				c0.2,0.2,0.6,0.4,1.1,0.7c0.9,0.3,1.5,0.7,1.9,1.2s0.6,1.1,0.6,1.9s-0.3,1.5-0.8,1.9c-0.5,0.5-1.2,0.7-2.1,0.7
				c-0.9,0-1.6-0.3-2.2-0.8c-0.6-0.5-0.9-1.3-0.9-2.3l0,0h1.7c0,0.6,0.1,1,0.4,1.3c0.2,0.3,0.6,0.4,1.1,0.4c0.4,0,0.6-0.1,0.8-0.3
				C242.7,330.5,242.8,330.2,242.8,329.8"/>
			<rect x="246.1" y="322.8" class="st2" width="1.8" height="9.5"/>
			<polygon class="st2" points="254.8,324.3 252.8,324.3 252.8,332.3 251,332.3 251,324.3 249,324.3 249,322.8 254.8,322.8 			"/>
			<path class="st2" d="M256,322.8v9.5h5.3v-1.5h-3.6v-2.7h3v-1.5h-3v-2.4h3.6v-1.5H256V322.8z M258.7,320.4l-1.1,1.7h1.4l1.5-1.7
				l0,0H258.7z"/>
			<path class="st2" d="M198.2,343.7v-9.5h2.7c0.9,0,1.7,0.4,2.3,1.1s0.9,1.7,0.9,2.9v1.6c0,1.2-0.3,2.1-0.9,2.9s-1.4,1.1-2.3,1.1
				h-2.7V343.7z M200,335.7v6.6h0.9c0.5,0,0.9-0.2,1.1-0.7c0.3-0.5,0.4-1.1,0.4-1.8v-1.6c0-0.7-0.1-1.3-0.4-1.8s-0.6-0.7-1.1-0.7
				H200z"/>
			<polygon class="st2" points="210.5,339.6 207.5,339.6 207.5,342.3 211,342.3 211,343.7 205.7,343.7 205.7,334.2 211,334.2
				211,335.7 207.5,335.7 207.5,338.1 210.5,338.1 			"/>
			<polygon class="st2" points="217.3,342.3 220.4,342.3 220.4,343.7 215.6,343.7 215.6,334.2 217.3,334.2 			"/>
			<polygon class="st2" points="223,338.3 223,338.3 224.5,334.2 226.4,334.2 223.8,340.4 223.8,343.7 222.1,343.7 222.1,340.2
				219.5,334.2 221.5,334.2 			"/>
			<path class="st2" d="M233.2,340.3c0,1.1-0.3,2-0.9,2.6c-0.6,0.6-1.3,0.9-2.3,0.9s-1.7-0.3-2.3-0.9s-0.9-1.5-0.9-2.6v-2.7
				c0-1.1,0.3-2,0.9-2.6c0.6-0.6,1.3-1,2.3-1s1.7,0.3,2.3,1c0.6,0.6,0.9,1.5,0.9,2.6V340.3z M231.5,337.6c0-0.7-0.1-1.2-0.4-1.5
				c-0.2-0.3-0.6-0.5-1.1-0.5s-0.8,0.2-1,0.5s-0.3,0.9-0.3,1.5v2.7c0,0.7,0.1,1.2,0.4,1.6c0.2,0.3,0.6,0.5,1,0.5
				c0.5,0,0.8-0.2,1-0.5s0.4-0.9,0.4-1.6L231.5,337.6L231.5,337.6z"/>
			<polygon class="st2" points="241.1,343.7 239.3,343.7 236.6,337.7 236.5,337.7 236.5,343.7 234.7,343.7 234.7,334.2 236.5,334.2
				239.3,340.3 239.3,340.3 239.3,334.2 241.1,334.2 			"/>
			<path class="st2" d="M190.6,334.2c0,3.5,0,7.9,0,8c0,5.7-4.6,10.4-10.4,10.4c0,0,0,0-0.1,0l0,0l0,0c0,0,0,0-0.1,0
				c-5.7,0-10.4-4.7-10.4-10.4c0,0,0-4.5,0-8h-1.9c0,3.4,0,7.9,0,8c0,6.8,5.5,12.3,12.3,12.3c0,0,0,0,0.1,0s0,0,0.1,0
				c6.8,0,12.3-5.5,12.3-12.3c0,0,0-4.5,0-8H190.6z"/>
			<path class="st2" d="M186.8,334.2c0,3.5,0,7.9,0,8c0,3.6-2.9,6.5-6.5,6.5c0,0,0,0-0.1,0l0,0l0,0c0,0,0,0-0.1,0
				c-3.6,0-6.5-2.9-6.5-6.5c0,0,0-4.5,0-8h-1.9v5.9c0,1.2,0,2,0,2c0,4.7,3.8,8.5,8.5,8.5c0,0,0,0,0.1,0c0,0,0,0,0.1,0
				c4.7,0,8.5-3.8,8.5-8.5c0,0,0-0.8,0-2v-5.9H186.8z"/>
			<path class="st2" d="M182.9,334.2c0,3.5,0,7.9,0,7.9c0,1.5-1.2,2.7-2.7,2.8l0,0l0,0l0,0l0,0c-1.5,0-2.7-1.2-2.7-2.8
				c0,0,0-4.4,0-7.9h-1.9c0,3.5,0,7.9,0,7.9c0,2.6,2.1,4.7,4.7,4.7l0,0l0,0c2.6,0,4.7-2.1,4.7-4.7c0,0,0-4.4,0-7.9H182.9z"/>
			<rect x="167.9" y="330.4" class="st2" width="24.6" height="1.9"/>
			<rect x="167.9" y="326.6" class="st2" width="24.6" height="1.9"/>
			<path class="st2" d="M193.1,312.6c0,0,0-0.1-0.1-0.2s-0.3-0.2-0.4-0.3c-0.1-0.1-0.2-0.2-0.3-0.3c-0.1,0-0.2-0.2-0.2-0.3
				c-0.1,0-0.1-0.3-0.1-0.4c0,0,0-0.1-0.1-0.2c-0.1,0-0.2-0.1-0.3-0.2s-0.3-0.3-0.3-0.3s-0.1-0.4-0.1-0.5c-0.1-0.2-0.1-0.3-0.2-0.3
				c0-0.1-0.1-0.1-0.1-0.2c0,0-0.1,0-0.2,0.1c0,0-0.2-0.2-0.5-0.3c-0.2-0.1-0.5-0.3-0.6-0.3s-0.3-0.1-0.3-0.2c0,0-0.2,0-0.3,0
				s-0.4,0-0.6,0.1c-0.2,0-0.6,0.1-0.7,0.1c-0.2,0-0.2,0-0.5,0.1c0,0-0.2,0-0.3,0.1c-0.1,0-0.3,0.1-0.5,0.2c-0.2,0-0.4,0-0.6,0.1
				c-0.1,0-0.5,0.2-0.7,0.2c-0.1,0-0.2,0-0.2,0s0,0.1,0.1,0.2c0,0-0.1,0.1-0.2,0.2c-0.1,0.1-0.3,0.1-0.4,0.2
				c-0.2,0.1-0.5,0.2-0.5,0.2s0.1,0.1,0.2,0.2c0,0,0,0-0.1,0.1c-0.2,0.1-0.5,0.2-0.7,0.3c-0.2,0.1-0.4,0.2-0.5,0.3
				c-0.2,0.1-0.2,0.1-0.3,0.2s-0.1,0.1-0.1,0.1s0.1,0,0.2,0c0.1,0,0.2,0,0.2,0s0,0.1-0.1,0.1c-0.1,0.1-0.2,0.2-0.4,0.4
				c-0.1,0.1-0.2,0.2-0.4,0.3c-0.1,0.1-0.3,0.3-0.3,0.3l0.1,0.1v0.1c-0.1,0-0.1,0.1-0.2,0.1c-0.1,0-1.1,0.2-2.2,0.2
				c-1.8,0-2.4-0.3-3.3-0.3c-0.9,0-1.6,0.2-2.5,0.4c-0.2,0.1-0.3,0.1-0.4,0.2c-0.4,0.1-0.7,0.2-1.1,0.3c-1.2,0.5-3.3,2.2-3.9,2.4
				c-0.6,0.2-0.9,0.3-1.3,0.2c-0.4,0-0.6-0.2-0.6-0.2s-0.2-0.4-0.4-0.6c-0.3-0.2-1.1-0.5-1.1-0.5s-0.1,0.5,0.1,1
				c0.3,0.6,1,0.5,1.2,0.6c0.4,0.2,1.4,0.4,2.2,0c0.7-0.3,1.5-0.8,2-1.1c0.5-0.3,1.4-0.6,2.1-0.6c0,0.1-0.1,0.2-0.1,0.4
				c-0.2,0.6-0.9,1.9-1.1,2.1c-0.2,0.3-0.9,1.1-1,1.2s-0.4,0.2-0.8,0.3c-0.4,0.1-1.6,0.2-1.6,0.2s-0.2,1-0.5,1.7
				c-0.1,0.3-0.4,0.8-0.4,0.8s0.4,0.4,0.6,0.9c0.1,0.1,0.2,0.3,0.3,0.4v1.8l0,0v0.1h24.6V323l0,0c0-0.1,0.1-0.5-0.2-0.6
				c-0.4-0.2-0.1-0.3-0.9-0.6c-0.2-0.1-0.7-0.2-0.8-0.3c-0.1-0.1-0.9-1.1-1.2-1.6c-0.4-0.4-1.1-1.4-1.1-1.4l-0.2-0.4v-0.3
				c0,0,0.1-0.1,0.1-0.2c0.1-0.1,0.3-0.4,0.4-0.5c0.1-0.3,0.1,0,0.2-0.2c0.1-0.1,0.3-0.3,0.4-0.3c0.1-0.1,0.3-0.3,0.3-0.3
				s0,0.1,0,0.2c0,0,0.1-0.1,0.2-0.2c0.1-0.1,0.1-0.2,0.2-0.3c0.1-0.1,0.2-0.4,0.3-0.6s0.1-0.2,0.2-0.3c0,0,0.1,0.1,0.1,0.2
				c0,0,0.1-0.1,0.1-0.2s0.1-0.2,0.1-0.3c0.1-0.1,0.1-0.2,0.2-0.3c0.1,0,0.2-0.1,0.3-0.1s0.2,0.1,0.3,0.1s0.2,0,0.2,0.1
				c0.1,0.1,0.2,0.2,0.2,0.2s0,0,0.1-0.1c0.1,0,0.1,0,0.2-0.1c0.1-0.1,0.1-0.1,0.1-0.2c0.1-0.1,0.1-0.1,0.1-0.3c0-0.1,0-0.2,0-0.2
				c0.1-0.1,0.2-0.1,0.2-0.2c0.1-0.1,0-0.2,0.1-0.2v-0.1c0,0,0.2-0.1,0.2-0.2s0-0.2,0.1-0.2C193.4,312.9,193.3,312.7,193.1,312.6
				 M180.3,318.9c0.2,0.1,0.6,0.3,1.1,0.4c0,0.1,0.1,0.3,0.1,0.5c0,0.6-0.7,1.4-0.7,1.4s0.3,0.8,0.4,0.9c0.1,0.1,0.4,0.3,0.5,0.5
				c0,0.1,0.1,0.1,0.1,0.2H180c0-0.2-0.1-0.3-0.2-0.4c-0.1-0.1-0.2-0.3-0.4-0.3c-0.8-0.3-0.8-0.2-1-0.3c-0.2-0.1-0.5-0.4-0.6-0.5
				c-0.1-0.2-0.2-0.9-0.2-1.5c0-0.4,0-0.7-0.1-0.9C178.3,318.7,179.4,318.5,180.3,318.9 M168.8,320.5c0.2-0.1,0.8,0.1,1.4,0
				c0.8-0.2,2-0.6,2.4-0.8c0.4-0.2,1-0.8,1.2-1s0.4-0.2,0.4-0.2s0.2,0.3,0.7,0.7c0.5,0.4,0.7,0.6,0.8,0.8c0.2,0.1,0.4,0.4,0.4,0.5
				c0.1,0.4,0.1,1.2,0.1,1.2s0.8,0.3,1,0.5s0.3,0.4,0.4,0.5h-7.9c0-0.1,0-0.4-0.3-0.5c-0.2-0.1-0.2-0.2-0.6-0.3
				c-0.2-0.1-0.3-0.1-0.4-0.4c-0.1-0.2-0.1-0.6-0.1-0.6S168.5,320.6,168.8,320.5 M188.3,321.3c0,0,0.8,0.3,1,0.6
				c0.1,0.2,0.8,0.4,0.8,0.4s0.2,0,0.5,0.3c0.2,0.2,0.3,0.3,0.4,0.3h-7.3c0-0.1,0-0.3-0.1-0.4s-0.2-0.2-0.3-0.3
				c-0.5-0.2-0.6-0.2-0.8-0.3c-0.1-0.1-0.2-0.5-0.2-0.5s0.9-0.9,1.1-1.1c0.2-0.3,0.3-0.4,0.4-0.5c0.7-0.1,1.4-0.2,1.7-0.3
				c0.1,0,0.1-0.1,0.2-0.1c0.1,0,0.1,0.1,0.2,0.1c0.4,0.2,1.3,0.6,1.6,0.9C187.8,320.5,188.3,321.3,188.3,321.3"/>
		</g>
	</g>
</g>
</svg>
