<?xml version="1.0" encoding="utf-8"?>
<!-- Generator: Adobe Illustrator 22.1.0, SVG Export Plug-In . SVG Version: 6.00 Build 0)  -->
<svg version="1.1" id="Calque_1" xmlns="http://www.w3.org/2000/svg" xmlns:xlink="http://www.w3.org/1999/xlink" x="0px" y="0px"
	 viewBox="0 0 420.9 595.3" style="enable-background:new 0 0 420.9 595.3;" xml:space="preserve">
<style type="text/css">
	.st0{clip-path:url(#SVGID_2_);fill:#FCEA10;}
	.st1{clip-path:url(#SVGID_4_);}
	.st2{fill:#FFFFFF;}
	.st3{fill:#CEE9F8;}
	.st4{display:none;fill:#E9511D;}
	.st5{fill:#F29201;}
	.st6{display:none;fill:#F29201;}
	.st7{fill:#E9511D;}
	.st8{fill:#F39200;}
	.st9{fill:#E94E1B;}
	.st10{fill:#6E3784;}
	.st11{display:none;}
	.st12{display:inline;fill:#F39200;}
	.st13{display:inline;fill:#E94E1B;}
	.st14{fill:#29235C;}
	.st15{fill:#FFFFFF;stroke:#FFFFFF;stroke-miterlimit:10;}
	.st16{display:inline;fill:#FFFFFF;}
	.st17{display:none;fill:#E94E1B;}
	.st18{fill:#6C6DB1;stroke:#E94E1B;stroke-miterlimit:10;}
	.st19{fill:#DE4875;}
	.st20{fill:#DEEDD7;}
	.st21{fill:#009FE3;}
	.st22{clip-path:url(#SVGID_6_);fill:#C9B918;}
	.st23{clip-path:url(#SVGID_8_);}
</style>
<g id="rond">
	<g>
		<defs>
			<rect id="SVGID_1_" x="6" y="-5.6" width="420.9" height="595.3"/>
		</defs>
		<clipPath id="SVGID_2_">
			<use xlink:href="#SVGID_1_"  style="overflow:visible;"/>
		</clipPath>
		<path class="st0" d="M46.4,337.1c0-93.9,76.1-170.1,170.1-170.1s170.1,76.1,170.1,170.1s-76.1,170.1-170.1,170.1
			S46.4,431,46.4,337.1"/>
	</g>
</g>
<g>
	<g>
		<defs>
			<rect id="SVGID_3_" x="6" y="-5" width="420.9" height="595.3"/>
		</defs>
		<clipPath id="SVGID_4_">
			<use xlink:href="#SVGID_3_"  style="overflow:visible;"/>
		</clipPath>
		<g id="tony" class="st1">
			<g id="arms">
				<g id="tshirt">
					<path class="st2" d="M186.7,434.1l10.4-96.8l33-34.3c0,0,24.8,95.6,14.9,126.5L186.7,434.1z"/>
					<path class="st3" d="M197,337.3l-2.1,17.5c10.2-1,20.2-4.1,28.6-10.8c0,0,8.9,58.3,0.2,86.9l21.3-1.6
						c9.9-30.9-14.9-126.5-14.9-126.5L197,337.3z"/>
					<path class="st4" d="M238.9,350.1l-1.2-14.1c0.6-0.1,15.4-1.3,30-0.3l-1,14.1C253.2,348.9,239.1,350.1,238.9,350.1"/>
					<path class="st4" d="M196.3,350.1c-0.1,0-14.3-1.2-27.8-0.3l-1-14.1c14.7-1,29.4,0.2,30,0.3L196.3,350.1z"/>
				</g>
				<path id="right-arm" class="st5" d="M156.7,388c-1.4,0-2.8-0.4-4-1.3c-0.9-0.6-22.4-15.8-18.3-34.9c2.8-13,21.6-15.5,35.5-16.3
					c13.8-0.7,27,0.4,27.6,0.4c3.9,0.3,6.8,3.8,6.5,7.7s-3.8,6.8-7.7,6.5c-0.1,0-11.7-1-24-0.5c-20,0.8-23.7,4.8-24.1,5.2
					c-1,4.7,2.1,9.7,4.9,13c3.6,4.3,7.6,7.2,7.7,7.2c3.2,2.2,4,6.7,1.7,9.9C161.2,387,159,388,156.7,388"/>
				<path id="right-arm-hide" class="st6" d="M210,402.5c-0.8,1.2-1.9,2.1-3.3,2.6c-1,0.4-25.6,9.8-39.2-4.3
					c-9.2-9.6-0.8-26.6,6.3-38.6c7.1-11.8,15.4-22.2,15.7-22.7c2.4-3.1,6.9-3.5,10-1.1c3.1,2.4,3.5,6.9,1.1,10
					c-0.1,0.1-7.4,9.2-13.8,19.6c-10.5,17-9.2,22.4-9.1,22.9c3.3,3.5,9.2,3.7,13.5,3.2c5.6-0.6,10.2-2.3,10.3-2.4
					c3.6-1.4,7.8,0.4,9.2,4.1C211.7,398.2,211.3,400.6,210,402.5"/>
				<g id="right-hand">
					<path id="rigth-finger5" class="st7" d="M163.7,375.7c0,0,6.8,3.4,9.9,10.6c1.3,3.1-2.6,7.5-2.6,7.5L163.7,375.7z"/>
					<path id="rigth-finger4" class="st5" d="M148.5,396.8c-2.1-3.9-7.2-15.1-1-21c0,0,6.6-3.7,15.3-0.3c3.7,1.4,6.3,4.7,7,8.6
						c1.1,6.5,6.9,19.3,7.5,25.9c0.2,2.9-3.9,3.8-4.9,1.1V411c-1.2-3.9-3.5-10.2-4.5-13.1c-0.9-2.9-6.6-1.3-6.6-1.3l-10.5,1.6
						C150,398.1,149,397.6,148.5,396.8"/>
					<path id="rigth-finger3" class="st5" d="M148.7,393.4l-0.1,3.4l1.7,5.6c0,0-1.6,0.6-1.7,1.4c0,0.8-0.9,2.5,2.4,3
						c3.2,0.4,5-0.1,5.4-1.6c0.4-1.6-2.4-11.2-2.4-11.2L148.7,393.4z"/>
					<path id="rigth-finger2" class="st5" d="M154.9,393.4l-0.1,3.4l1.7,5.6c0,0-1.6,0.6-1.7,1.4c0,0.8-0.9,2.5,2.4,3
						c3.2,0.4,5-0.1,5.4-1.6c0.4-1.6-2.4-11.2-2.4-11.2L154.9,393.4z"/>
					<path id="rigth-finger1" class="st5" d="M161.1,393.4l-0.1,3.4l1.7,5.6c0,0-1.6,0.6-1.7,1.4c0,0.8-0.9,2.5,2.4,3
						c3.2,0.4,5-0.1,5.4-1.6c0.4-1.6-2.4-11.2-2.4-11.2L161.1,393.4z"/>
				</g>
				<path id="left-arm" class="st5" d="M278.5,388c-2.2,0-4.5-1.1-5.8-3c-2.2-3.2-1.4-7.6,1.8-9.9c3.8-2.7,14.2-12.1,12.5-20.3
					c-0.3-0.4-4-4.4-24.1-5.2c-12.2-0.5-23.8,0.5-24,0.5c-3.9,0.3-7.3-2.6-7.7-6.5c-0.3-3.9,2.6-7.3,6.5-7.7
					c0.6,0,13.8-1.2,27.6-0.4c13.9,0.7,32.7,3.2,35.5,16.3c4.1,19.2-17.4,34.3-18.3,34.9C281.3,387.6,279.9,388,278.5,388"/>
				<g id="left-hand">
					<path id="left-finger5" class="st7" d="M271.5,375.7c0,0-6.8,3.4-9.9,10.6c-1.3,3.1,2.6,7.5,2.6,7.5L271.5,375.7z"/>
					<path id="left-finger4" class="st5" d="M286.7,396.8c2.1-3.9,7.2-15.1,1-21c0,0-6.6-3.7-15.3-0.3c-3.7,1.4-6.3,4.7-7,8.6
						c-1.1,6.5-6.9,19.3-7.5,25.9c-0.2,2.9,3.9,3.8,4.9,1.1V411c1.2-3.9,3.5-10.2,4.5-13.1c0.9-2.9,6.6-1.3,6.6-1.3l10.5,1.6
						C285.2,398.1,286.2,397.6,286.7,396.8"/>
					<path id="left-finger3" class="st5" d="M286.6,393.4l0.1,3.4l-1.7,5.6c0,0,1.6,0.6,1.7,1.4c0,0.8,0.9,2.5-2.4,3
						c-3.2,0.4-5-0.1-5.4-1.6c-0.4-1.6,2.4-11.2,2.4-11.2L286.6,393.4z"/>
					<path id="left-finger2" class="st5" d="M280.3,393.4l0.1,3.4l-1.7,5.6c0,0,1.6,0.6,1.7,1.4c0,0.8,0.9,2.5-2.4,3
						c-3.2,0.4-5-0.1-5.4-1.6c-0.4-1.6,2.4-11.2,2.4-11.2L280.3,393.4z"/>
					<path id="left-finger1" class="st5" d="M274.1,393.4l0.1,3.4l-1.7,5.6c0,0,1.6,0.6,1.7,1.4c0,0.8,0.9,2.5-2.4,3
						c-3.2,0.4-5-0.1-5.4-1.6c-0.4-1.6,2.4-11.2,2.4-11.2L274.1,393.4z"/>
				</g>
				<path id="left-arm-hide" class="st6" d="M212.8,384c-0.3-2,0.5-4.4,2.4-5.9c3.1-2.6,7.8-2.5,10.7,0.1
					c3.4,3.1,14.8,11.2,23.3,8.3c0.4-0.3,4.1-4.4,2.1-23.2c-1.2-11.4-3.9-22-3.9-22.2c-0.9-3.6,1.7-7.2,5.8-8.2
					c4.1-0.9,9.1,4.8,9.1,4.8s3.2,12.6,4.3,25.6c1.2,13,1.3,30.9-12.2,35.6c-19.7,6.9-38.8-10.6-39.5-11.4
					C213.6,386.5,213,385.3,212.8,384"/>
			</g>
			<g id="ears">
				<g id="left-ear">
					<path class="st8" d="M250.9,292.9l1,16c0,0,9.1,2.7,12.1-7.3C265.7,296.2,261.7,288.4,250.9,292.9"/>
					<path class="st9" d="M253.3,295.8l0.6,9.9c0,0,5.6,1.7,7.5-4.5C262.5,297.8,260,293,253.3,295.8"/>
				</g>
				<g id="right-ear">
					<path id="right-ear-outside" class="st8" d="M188,284.3l-4.4,15.5c0,0-11.3,0.8-13-9.6C169.7,284.6,175.9,277.7,188,284.3"/>
					<path id="right-ear-inside" class="st9" d="M185,286.4l-3,10.4c0,0-7.6,0.5-8.7-6.4C172.7,286.5,176.9,281.9,185,286.4"/>
				</g>
			</g>
			<path id="mane" class="st10" d="M268.8,331.9c0.4-4.9-0.6-9.7-2.8-13.7c0.4-7.3-3.1-14.1-8.8-18c1.6-1.1,3-3.6,3.5-5.6
				c1.3-5.4-0.9-13.5-5.9-17.7c2.1-1.8,0-4.5,0.3-7.5c0.1-1.1,2-0.7,1.8-1.7c2.7-1,3.4-3.4,3.8-7.7c0.4-4.9-3.9-8.4-8.1-10.2
				c0.2-7.6-5.5-14.2-13.2-14.9c-4.6-0.4-9.2,2-12.2,5.1c-1.2-4.9-5.2-11.2-14.6-12.1c-11.5-1-22.1,1.8-23.1,13.3
				c-0.1,0.9-0.1,1.7-0.1,2.5c-0.6-0.1-1.3-0.3-1.9-0.3c-8-0.7-14.8,5.2-15.5,13.2c-0.5,5.4,5.6,10.4,8.5,11
				c-2.7,3.1-3.5,14.9-3.9,19.3c-0.3,3.4,0.2,6.7,1.5,9.7c-7.3,2.7-12.8,9.3-13.5,17.5c-0.7,7.4,2.6,14.2,8.2,18.3
				c-0.2,1-0.4,2-0.5,3.1c-1,11.3,7.3,21.4,18.7,22.4c2.7,0.2,5.3-0.1,7.8-0.8c3.2,8.5,11.1,14.9,20.7,15.7
				c4.9,0.4,9.7-0.6,13.7-2.8c0.3,0,0.6,0.1,0.8,0.1c11.3,1,21.4-7.3,22.4-18.7c0-0.1,0-0.2,0-0.3
				C263.1,347.3,268,340.3,268.8,331.9"/>
			<g id="full-face">
				<g id="reverse-face" class="st11">
					<path id="face-in_1_" class="st12" d="M207.2,320.7c-1.1-0.4-2.1-0.8-3-1.5c-3.7-2.7-10.1-8.9,0.6-14.5c0,0-4.1-16.2,0.4-21.6
						s11.2-1.8,15.2-2.2c4-0.4,11-11.8,20.9-3.5c21.8,27.4,2,23.1,0.9,31.7c-1.1,9.1,2.5,13.7-1.1,22.9c-6.8,17.4-25,23.4-26.9,1.7
						c0,0-1.2-8.1-2.4-10C210.6,321.9,207.2,320.7,207.2,320.7"/>
					<path id="reverse-face-in" class="st12" d="M243.5,319.5c1.1-0.4-0.9-4.8,0-5.5c3.7-2.7,3.2-6.5,3.4-15.5c0,0-0.9-2.2-5.4-7.6
						s-3.2-7.8-7.2-8.2c-4-0.4-26.5-12.1-23.9,0.5c6,28.6-3.1,17.4-8.9,27.9c-4.4,8,8.5,13.5,12.1,22.7c6.8,17.4,25,23.4,26.9,1.7
						c0,0,1.2-5.1,2.4-7s1.6-6.1,1.6-6.1"/>
					<path id="reverse-face-out" class="st13" d="M238.6,329.2c3.6-9.2,0-13.8,1.1-22.9c1-8.4,19.8-4.5,0.7-29.6
						c0.3,0.2,0.6,0.5,0.9,0.7c21.8,27.4,2,23.1,0.9,31.7c-1.1,9.1,2.5,13.7-1.1,22.9c-5.6,14.4-19,21-24.7,10.4
						C222.8,346.5,233.7,341.7,238.6,329.2"/>
				</g>
				<g id="face">
					<path id="face-in_3_" class="st8" d="M238.1,344.8c-0.4,0.5-1.3,1.6-2.7,2.7c0,0-2.6,2.1-6,3.5c-11.8,4.5-20.4-1.2-20.4-1.2
						c-4.2-2.6-6-6.4-7.2-9c-4.8-10.4,0.9-15.7-3.5-25.5c-3-6.8-6.8-6.5-8.3-11.7c-1.5-5.4,0.3-13.1,11.5-24.3
						c2.9-2.3,5.5-3.2,8-3.4c6.6-0.3,9.3,4.5,16.7,7.3c11.7,4.4,19.2-2.8,23.2,1.5c5.9,6.4-7.2,33.4-4.6,25.2
						c0.1,0.3,0.1,0.6,0.2,0.9c0.1,0.4,0.4,1.8,0.4,2.8c0,1.1-0.3,1.8-1,3.2c-0.5,1.1-1.3,2.6-2.6,4.3c0.3,1.3,2.3,9.7,0,16.8
						C240.4,342,238.1,344.8,238.1,344.8z"/>
					<path id="face-out" class="st9" d="M203.6,337.6c-4.3-10.4,1.3-15.2-3.3-25c-3.2-6.8-7-6.9-8.4-12.2c-2-7.7,3.9-15.9,9.6-22
						c-0.4,0.3-0.7,0.5-1.1,0.8c-12,12.4-12.9,19.8-11.5,24.2c1.6,5.3,6,5.2,9.5,11.9c5.2,10-1.8,15.9,2.3,25.5
						c4,9.3,16.6,17.3,26.8,13.9c6.1-2,9.4-7.5,10.7-9.9c-1.2,1.5-3.9,4.3-8.2,6c-1,0.4-7.4,2.7-14.3,0.1
						C207.7,347.7,204.6,339.9,203.6,337.6z"/>
				</g>
				<path id="snout" class="st14" d="M218.2,311.2c0,0,3.7,8.9,7.8,9.3c4,0.3,8.2-6.2,8.2-6.2S231.3,310.5,218.2,311.2"/>
				<path id="nose" class="st9" d="M246.1,310.6c-0.4-0.2-0.9-0.5-1.3-0.7c0,0,0.1-0.3,0.2-0.8c-25-4.5-35.7-0.6-35.7-0.6
					C217.8,307.7,230.4,307.6,246.1,310.6"/>
				<g id="eyes">
					<g id="left-eye">
						<polygon id="left-eyebrow" class="st14" points="241.3,284.3 238.9,288.1 252.4,290.5 						"/>
						<path id="left-eyeball" class="st14" d="M241.3,301.7c0.2-2-1.4-3.8-3.5-4s-4,1.3-4.2,3.3s1.4,3.8,3.5,4
							C239.2,305.2,241.1,303.7,241.3,301.7"/>
						<circle class="st15" cx="236.8" cy="299.5" r="0.9"/>
					</g>
					<g id="right-eye">
						<polygon id="right-eyebrow" class="st14" points="205.1,285.3 228.2,281.4 224.6,286.6 						"/>
						<path id="right-eyeball" class="st14" d="M218.7,296.4c0.2-2.5-1.7-4.6-4.2-4.9c-2.6-0.2-4.9,1.6-5.1,4.1
							c-0.2,2.5,1.7,4.6,4.2,4.9C216.2,300.7,218.5,298.9,218.7,296.4"/>
						<circle class="st15" cx="212.8" cy="293.5" r="0.9"/>
					</g>
				</g>
				<g id="big_mouth" class="st11">
					<path id="big-mouth-out" class="st13" d="M238.5,325.8c-0.2,0.5-0.2,2.5-1.7,6.2s-5.4,3.1-11.1,0.3c-5.7-2.9-10.1-8.8-9.9-12.9
						c0.3-4.1,2.3-5.9,5.2-5.8c2.9,0.2,6.8,4.7,16.4,7.1c3.4,0.9,6,0.7,7.9,0.1c-1.5,1.4-3,2.3-3,2.3L238.5,325.8z"/>
					<path id="big-mouth-in" class="st16" d="M241.3,322.7c0,0-8.6-0.7-14.1-4.5c-5.4-3.8-9.8-4.1-10.1,1.2
						c-0.3,5.2,8.2,11.7,14,13.3c5.8,1.6,5.2-3.4,5.2-3.4l1-4.4L241.3,322.7z"/>
				</g>
				<g id="small-mouth">
					<path id="small-mouth-out" class="st17" d="M236.4,324.1c-0.5,1.1-1.1,1.9-1.6,2.4c-0.4,0.5-0.9,1.1-1.8,1.8
						c0,0-0.8,0.6-1.9,1.1c-0.9,0.4-4.2,1.7-7.5,1.1c-5.9-1-10.2-7.6-9.9-12.9c0.2-2.6,1-4.3,2.4-5.1c0.7-0.4,1.5-0.6,2.8-0.6
						c4.1,0,7.4,1.8,10,3.3c1,0.6,2.4,1.5,4.1,2.8c1.1,1.1,2.3,2.2,3.4,3.3C236.4,322.2,236.4,323.2,236.4,324.1z"/>
					<g>
						<path id="small-mouth-in" class="st18" d="M231.9,331.5c-3.3-2.1-6.2-3.7-8.4-4.7c-5-2.4-8.1-3.8-10.1-2.5
							c-1.7,1.1-1.7,3.5-1.8,3.9c-0.2,5.2,6.8,8.7,10.5,10.5c2,1,3.6,1.5,5.4,1.1c1.6-0.3,2.8-1.3,3.4-1.9c1.5-1.2,3.1-2.3,4.6-3.5
							C234.2,333.4,233,332.5,231.9,331.5z"/>
						<path id="tongue" class="st19" d="M224.2,339.6c-1.9-0.7-3.9-0.8-3.9-1.9v-1.2c0-1,1.1-1.9,2.4-1.9h1.5c1.3,0,2.4,0.8,2.4,1.9
							v1.2C225.4,340.1,226,340.3,224.2,339.6z"/>
						<path id="teeth" class="st20" d="M228.4,332.4h-1.6c-1.4,0-2.5-0.8-2.5-1.8v-1.1c0-0.4-0.6-2.2,1.1-1.4
							c1.3,0.6,5.1,1.6,5.4,2.5S229.8,332.4,228.4,332.4z"/>
					</g>
				</g>
			</g>
			<g id="band">
				<path class="st21" d="M254.9,276.8l-76.7,1c-1.5,0-2.7-1.2-2.7-2.6l-0.1-5c0-1.5,1.2-2.7,2.6-2.7l76.7-1c1.5,0,2.7,1.2,2.7,2.6
					l0.1,5C257.6,275.6,256.4,276.8,254.9,276.8"/>
				<path class="st2" d="M255.9,273.6l-78.7,1.1c-0.9,0-1.7-0.7-1.7-1.7v-0.6c0-0.9,0.7-1.7,1.7-1.7l78.7-1.1c0.9,0,1.7,0.7,1.7,1.7
					v0.6C257.6,272.8,256.8,273.6,255.9,273.6"/>
			</g>
		</g>
	</g>
	<g>
		<defs>
			<rect id="SVGID_5_" x="6" y="-5" width="420.9" height="595.3"/>
		</defs>
		<clipPath id="SVGID_6_">
			<use xlink:href="#SVGID_5_"  style="overflow:visible;"/>
		</clipPath>
		<path id="encoche" class="st22" d="M77.3,435.4c30.8,43.8,81.6,72.4,139.2,72.4s108.4-28.6,139.2-72.4H77.3z"/>
	</g>
	<g>
		<defs>
			<rect id="SVGID_7_" x="6" y="-5" width="420.9" height="595.3"/>
		</defs>
		<clipPath id="SVGID_8_">
			<use xlink:href="#SVGID_7_"  style="overflow:visible;"/>
		</clipPath>
		<g id="logo-udl" class="st23">
			<path class="st2" d="M208.2,461.8v6.5c0,1-0.3,1.8-0.8,2.4c-0.6,0.6-1.2,0.8-2.1,0.8c-0.9,0-1.6-0.3-2.1-0.8
				c-0.6-0.6-0.8-1.3-0.8-2.3v-6.5h1.8v6.5c0,0.6,0.1,1,0.3,1.3s0.5,0.4,0.9,0.4s0.6-0.1,0.9-0.4c0.2-0.3,0.3-0.7,0.3-1.3v-6.5h1.6
				V461.8z"/>
			<polygon class="st2" points="216,471.3 214.3,471.3 211.5,465.2 211.5,465.3 211.5,471.3 209.7,471.3 209.7,461.8 211.5,461.8 
				214.2,467.9 214.3,467.9 214.3,461.8 216,461.8 			"/>
			<rect x="217.8" y="461.8" class="st2" width="1.8" height="9.5"/>
			<polygon class="st2" points="224.1,468.9 224.1,469.3 224.2,469.3 224.2,468.9 225.8,461.8 227.6,461.8 225.1,471.3 223.2,471.3 
				220.7,461.8 222.6,461.8 			"/>
			<polygon class="st2" points="233.5,467.2 230.4,467.2 230.4,469.8 234,469.8 234,471.3 228.7,471.3 228.7,461.8 234,461.8 
				234,463.3 230.4,463.3 230.4,465.7 233.5,465.7 			"/>
			<path class="st2" d="M237.1,467.5v3.8h-1.8v-9.5h3c0.9,0,1.6,0.2,2.1,0.7s0.8,1.2,0.8,2.1c0,0.5-0.1,0.9-0.3,1.3
				s-0.5,0.6-0.9,0.9c0.5,0.2,0.8,0.4,1,0.8s0.3,0.9,0.3,1.4v0.7c0,0.3,0,0.5,0.1,0.8s0.2,0.5,0.3,0.7v0.1h-1.8
				c-0.1-0.1-0.2-0.4-0.3-0.7c0-0.3-0.1-0.6-0.1-1V469c0-0.5-0.1-0.8-0.3-1.1c-0.2-0.3-0.4-0.4-0.8-0.4H237.1z M237.1,466.1h1.2
				c0.4,0,0.6-0.1,0.8-0.3c0.2-0.2,0.3-0.6,0.3-1s-0.1-0.8-0.3-1c-0.2-0.3-0.5-0.4-0.8-0.4h-1.2V466.1z"/>
			<path class="st2" d="M246.8,468.8c0-0.4-0.1-0.7-0.3-0.9c-0.2-0.2-0.5-0.4-1-0.6c-0.9-0.3-1.6-0.7-2.1-1.2
				c-0.5-0.4-0.7-1.1-0.7-1.8c0-0.8,0.3-1.4,0.8-1.9s1.2-0.7,2.1-0.7c0.9,0,1.6,0.3,2.1,0.8s0.8,1.2,0.8,2.1l0,0h-1.7
				c0-0.4-0.1-0.8-0.3-1.1c-0.2-0.3-0.5-0.4-0.9-0.4s-0.6,0.1-0.8,0.3c-0.2,0.2-0.3,0.5-0.3,0.8s0.1,0.6,0.3,0.8
				c0.2,0.2,0.6,0.4,1.1,0.7c0.9,0.3,1.5,0.7,1.9,1.2s0.6,1.1,0.6,1.9s-0.3,1.5-0.8,1.9c-0.5,0.5-1.2,0.7-2.1,0.7
				c-0.9,0-1.6-0.3-2.2-0.8c-0.6-0.5-0.9-1.3-0.9-2.3l0,0h1.7c0,0.6,0.1,1,0.4,1.3c0.2,0.3,0.6,0.4,1.1,0.4c0.4,0,0.6-0.1,0.8-0.3
				C246.7,469.5,246.8,469.2,246.8,468.8"/>
			<rect x="250.1" y="461.8" class="st2" width="1.8" height="9.5"/>
			<polygon class="st2" points="258.8,463.3 256.8,463.3 256.8,471.3 255,471.3 255,463.3 253,463.3 253,461.8 258.8,461.8 			"/>
			<path class="st2" d="M260,461.8v9.5h5.3v-1.5h-3.6v-2.7h3v-1.5h-3v-2.4h3.6v-1.5H260V461.8z M262.7,459.4l-1.1,1.7h1.4l1.5-1.7
				l0,0H262.7z"/>
			<path class="st2" d="M202.2,482.7v-9.5h2.7c0.9,0,1.7,0.4,2.3,1.1s0.9,1.7,0.9,2.9v1.6c0,1.2-0.3,2.1-0.9,2.9s-1.4,1.1-2.3,1.1
				h-2.7V482.7z M204,474.7v6.6h0.9c0.5,0,0.9-0.2,1.1-0.7c0.3-0.5,0.4-1.1,0.4-1.8v-1.6c0-0.7-0.1-1.3-0.4-1.8s-0.6-0.7-1.1-0.7
				H204z"/>
			<polygon class="st2" points="214.5,478.6 211.5,478.6 211.5,481.3 215,481.3 215,482.7 209.7,482.7 209.7,473.2 215,473.2 
				215,474.7 211.5,474.7 211.5,477.1 214.5,477.1 			"/>
			<polygon class="st2" points="221.3,481.3 224.4,481.3 224.4,482.7 219.6,482.7 219.6,473.2 221.3,473.2 			"/>
			<polygon class="st2" points="227,477.3 227,477.3 228.5,473.2 230.4,473.2 227.8,479.4 227.8,482.7 226.1,482.7 226.1,479.2 
				223.5,473.2 225.5,473.2 			"/>
			<path class="st2" d="M237.2,479.3c0,1.1-0.3,2-0.9,2.6c-0.6,0.6-1.3,0.9-2.3,0.9s-1.7-0.3-2.3-0.9s-0.9-1.5-0.9-2.6v-2.7
				c0-1.1,0.3-2,0.9-2.6c0.6-0.6,1.3-1,2.3-1s1.7,0.3,2.3,1c0.6,0.6,0.9,1.5,0.9,2.6V479.3z M235.5,476.6c0-0.7-0.1-1.2-0.4-1.5
				c-0.2-0.3-0.6-0.5-1.1-0.5s-0.8,0.2-1,0.5s-0.3,0.9-0.3,1.5v2.7c0,0.7,0.1,1.2,0.4,1.6c0.2,0.3,0.6,0.5,1,0.5
				c0.5,0,0.8-0.2,1-0.5s0.4-0.9,0.4-1.6L235.5,476.6L235.5,476.6z"/>
			<polygon class="st2" points="245.1,482.7 243.3,482.7 240.6,476.7 240.5,476.7 240.5,482.7 238.7,482.7 238.7,473.2 240.5,473.2 
				243.3,479.3 243.3,479.3 243.3,473.2 245.1,473.2 			"/>
			<path class="st2" d="M194.6,473.2c0,3.5,0,7.9,0,8c0,5.7-4.6,10.4-10.4,10.4c0,0,0,0-0.1,0l0,0l0,0c0,0,0,0-0.1,0
				c-5.7,0-10.4-4.7-10.4-10.4c0,0,0-4.5,0-8h-1.9c0,3.4,0,7.9,0,8c0,6.8,5.5,12.3,12.3,12.3c0,0,0,0,0.1,0s0,0,0.1,0
				c6.8,0,12.3-5.5,12.3-12.3c0,0,0-4.5,0-8H194.6z"/>
			<path class="st2" d="M190.8,473.2c0,3.5,0,7.9,0,8c0,3.6-2.9,6.5-6.5,6.5c0,0,0,0-0.1,0l0,0l0,0c0,0,0,0-0.1,0
				c-3.6,0-6.5-2.9-6.5-6.5c0,0,0-4.5,0-8h-1.9v5.9c0,1.2,0,2,0,2c0,4.7,3.8,8.5,8.5,8.5c0,0,0,0,0.1,0c0,0,0,0,0.1,0
				c4.7,0,8.5-3.8,8.5-8.5c0,0,0-0.8,0-2v-5.9H190.8z"/>
			<path class="st2" d="M186.9,473.2c0,3.5,0,7.9,0,7.9c0,1.5-1.2,2.7-2.7,2.8l0,0l0,0l0,0l0,0c-1.5,0-2.7-1.2-2.7-2.8
				c0,0,0-4.4,0-7.9h-1.9c0,3.5,0,7.9,0,7.9c0,2.6,2.1,4.7,4.7,4.7l0,0l0,0c2.6,0,4.7-2.1,4.7-4.7c0,0,0-4.4,0-7.9H186.9z"/>
			<rect x="171.9" y="469.4" class="st2" width="24.6" height="1.9"/>
			<rect x="171.9" y="465.6" class="st2" width="24.6" height="1.9"/>
			<path class="st2" d="M197.1,451.6c0,0,0-0.1-0.1-0.2s-0.3-0.2-0.4-0.3c-0.1-0.1-0.2-0.2-0.3-0.3c-0.1,0-0.2-0.2-0.2-0.3
				c-0.1,0-0.1-0.3-0.1-0.4c0,0,0-0.1-0.1-0.2c-0.1,0-0.2-0.1-0.3-0.2s-0.3-0.3-0.3-0.3s-0.1-0.4-0.1-0.5c-0.1-0.2-0.1-0.3-0.2-0.3
				c0-0.1-0.1-0.1-0.1-0.2c0,0-0.1,0-0.2,0.1c0,0-0.2-0.2-0.5-0.3c-0.2-0.1-0.5-0.3-0.6-0.3s-0.3-0.1-0.3-0.2c0,0-0.2,0-0.3,0
				s-0.4,0-0.6,0.1c-0.2,0-0.6,0.1-0.7,0.1c-0.2,0-0.2,0-0.5,0.1c0,0-0.2,0-0.3,0.1c-0.1,0-0.3,0.1-0.5,0.2c-0.2,0-0.4,0-0.6,0.1
				c-0.1,0-0.5,0.2-0.7,0.2c-0.1,0-0.2,0-0.2,0s0,0.1,0.1,0.2c0,0-0.1,0.1-0.2,0.2c-0.1,0.1-0.3,0.1-0.4,0.2
				c-0.2,0.1-0.5,0.2-0.5,0.2s0.1,0.1,0.2,0.2c0,0,0,0-0.1,0.1c-0.2,0.1-0.5,0.2-0.7,0.3c-0.2,0.1-0.4,0.2-0.5,0.3
				c-0.2,0.1-0.2,0.1-0.3,0.2s-0.1,0.1-0.1,0.1s0.1,0,0.2,0c0.1,0,0.2,0,0.2,0s0,0.1-0.1,0.1c-0.1,0.1-0.2,0.2-0.4,0.4
				c-0.1,0.1-0.2,0.2-0.4,0.3c-0.1,0.1-0.3,0.3-0.3,0.3l0.1,0.1v0.1c-0.1,0-0.1,0.1-0.2,0.1c-0.1,0-1.1,0.2-2.2,0.2
				c-1.8,0-2.4-0.3-3.3-0.3c-0.9,0-1.6,0.2-2.5,0.4c-0.2,0.1-0.3,0.1-0.4,0.2c-0.4,0.1-0.7,0.2-1.1,0.3c-1.2,0.5-3.3,2.2-3.9,2.4
				c-0.6,0.2-0.9,0.3-1.3,0.2c-0.4,0-0.6-0.2-0.6-0.2s-0.2-0.4-0.4-0.6c-0.3-0.2-1.1-0.5-1.1-0.5s-0.1,0.5,0.1,1
				c0.3,0.6,1,0.5,1.2,0.6c0.4,0.2,1.4,0.4,2.2,0c0.7-0.3,1.5-0.8,2-1.1c0.5-0.3,1.4-0.6,2.1-0.6c0,0.1-0.1,0.2-0.1,0.4
				c-0.2,0.6-0.9,1.9-1.1,2.1c-0.2,0.3-0.9,1.1-1,1.2s-0.4,0.2-0.8,0.3c-0.4,0.1-1.6,0.2-1.6,0.2s-0.2,1-0.5,1.7
				c-0.1,0.3-0.4,0.8-0.4,0.8s0.4,0.4,0.6,0.9c0.1,0.1,0.2,0.3,0.3,0.4v1.8l0,0v0.1h24.6V462l0,0c0-0.1,0.1-0.5-0.2-0.6
				c-0.4-0.2-0.1-0.3-0.9-0.6c-0.2-0.1-0.7-0.2-0.8-0.3c-0.1-0.1-0.9-1.1-1.2-1.6c-0.4-0.4-1.1-1.4-1.1-1.4l-0.2-0.4v-0.3
				c0,0,0.1-0.1,0.1-0.2c0.1-0.1,0.3-0.4,0.4-0.5c0.1-0.3,0.1,0,0.2-0.2c0.1-0.1,0.3-0.3,0.4-0.3c0.1-0.1,0.3-0.3,0.3-0.3
				s0,0.1,0,0.2c0,0,0.1-0.1,0.2-0.2c0.1-0.1,0.1-0.2,0.2-0.3c0.1-0.1,0.2-0.4,0.3-0.6s0.1-0.2,0.2-0.3c0,0,0.1,0.1,0.1,0.2
				c0,0,0.1-0.1,0.1-0.2s0.1-0.2,0.1-0.3c0.1-0.1,0.1-0.2,0.2-0.3c0.1,0,0.2-0.1,0.3-0.1s0.2,0.1,0.3,0.1s0.2,0,0.2,0.1
				c0.1,0.1,0.2,0.2,0.2,0.2s0,0,0.1-0.1c0.1,0,0.1,0,0.2-0.1c0.1-0.1,0.1-0.1,0.1-0.2c0.1-0.1,0.1-0.1,0.1-0.3c0-0.1,0-0.2,0-0.2
				c0.1-0.1,0.2-0.1,0.2-0.2c0.1-0.1,0-0.2,0.1-0.2v-0.1c0,0,0.2-0.1,0.2-0.2s0-0.2,0.1-0.2C197.4,451.9,197.3,451.7,197.1,451.6
				 M184.3,457.9c0.2,0.1,0.6,0.3,1.1,0.4c0,0.1,0.1,0.3,0.1,0.5c0,0.6-0.7,1.4-0.7,1.4s0.3,0.8,0.4,0.9c0.1,0.1,0.4,0.3,0.5,0.5
				c0,0.1,0.1,0.1,0.1,0.2H184c0-0.2-0.1-0.3-0.2-0.4c-0.1-0.1-0.2-0.3-0.4-0.3c-0.8-0.3-0.8-0.2-1-0.3c-0.2-0.1-0.5-0.4-0.6-0.5
				c-0.1-0.2-0.2-0.9-0.2-1.5c0-0.4,0-0.7-0.1-0.9C182.3,457.7,183.4,457.5,184.3,457.9 M172.8,459.5c0.2-0.1,0.8,0.1,1.4,0
				c0.8-0.2,2-0.6,2.4-0.8c0.4-0.2,1-0.8,1.2-1s0.4-0.2,0.4-0.2s0.2,0.3,0.7,0.7c0.5,0.4,0.7,0.6,0.8,0.8c0.2,0.1,0.4,0.4,0.4,0.5
				c0.1,0.4,0.1,1.2,0.1,1.2s0.8,0.3,1,0.5s0.3,0.4,0.4,0.5h-7.9c0-0.1,0-0.4-0.3-0.5c-0.2-0.1-0.2-0.2-0.6-0.3
				c-0.2-0.1-0.3-0.1-0.4-0.4c-0.1-0.2-0.1-0.6-0.1-0.6S172.5,459.6,172.8,459.5 M192.3,460.3c0,0,0.8,0.3,1,0.6
				c0.1,0.2,0.8,0.4,0.8,0.4s0.2,0,0.5,0.3c0.2,0.2,0.3,0.3,0.4,0.3h-7.3c0-0.1,0-0.3-0.1-0.4s-0.2-0.2-0.3-0.3
				c-0.5-0.2-0.6-0.2-0.8-0.3c-0.1-0.1-0.2-0.5-0.2-0.5s0.9-0.9,1.1-1.1c0.2-0.3,0.3-0.4,0.4-0.5c0.7-0.1,1.4-0.2,1.7-0.3
				c0.1,0,0.1-0.1,0.2-0.1c0.1,0,0.1,0.1,0.2,0.1c0.4,0.2,1.3,0.6,1.6,0.9C191.8,459.5,192.3,460.3,192.3,460.3"/>
		</g>
	</g>
</g>
</svg>
