<svg id="Calque_1" data-name="Calque 1" xmlns="http://www.w3.org/2000/svg" xmlns:xlink="http://www.w3.org/1999/xlink" viewBox="0 0 340.16 340.16"><defs><clipPath id="clip-path" transform="translate(-40.39 -172.6)"><rect width="420.95" height="595.28" style="fill:none"/></clipPath></defs><title>tony</title><g id="rond"><g style="clip-path:url(#clip-path)"><path d="M40.39,342.68A170.08,170.08,0,1,1,210.47,512.76,170.08,170.08,0,0,1,40.39,342.68" transform="translate(-40.39 -172.6)" style="fill:#fcea10"/></g></g><g style="clip-path:url(#clip-path)"><g id="tony"><path d="M150.73,393a7.08,7.08,0,0,1-4-1.26c-.91-.64-22.38-15.79-18.3-34.94,2.78-13,21.6-15.53,35.51-16.27a221.71,221.71,0,0,1,27.58.43,7.09,7.09,0,0,1-1.22,14.13,215.28,215.28,0,0,0-24-.48c-20,.84-23.74,4.83-24.06,5.23-.95,4.73,2.11,9.69,4.87,13a44.6,44.6,0,0,0,7.68,7.24,7.09,7.09,0,0,1-4.07,12.9" transform="translate(-40.39 -172.6)" style="fill:#f29201"/><path d="M190.27,355.12a208.91,208.91,0,0,0-27.81-.26l-1-14.14a218,218,0,0,1,30,.28Z" transform="translate(-40.39 -172.6)" style="fill:#e9511d"/><path d="M157.71,380.75a23.08,23.08,0,0,1,9.93,10.63c1.34,3.13-2.57,7.5-2.57,7.5Z" transform="translate(-40.39 -172.6)" style="fill:#e9511d"/><path d="M142.55,401.76c-2.11-3.94-7.22-15.13-1-21a19,19,0,0,1,15.29-.33,11.15,11.15,0,0,1,7,8.56c1.07,6.45,6.92,19.3,7.48,25.88a2.5,2.5,0,0,1-4.85,1.07.36.36,0,0,1,0-.11c-1.25-3.87-3.53-10.16-4.47-13.08s-6.55-1.33-6.55-1.33L144.92,403a2.31,2.31,0,0,1-2.37-1.19" transform="translate(-40.39 -172.6)" style="fill:#f29201"/><path d="M142.65,398.36l-.1,3.4,1.66,5.61s-1.62.59-1.66,1.4-.86,2.51,2.39,3,5-.07,5.4-1.62S148,398.88,148,398.88Z" transform="translate(-40.39 -172.6)" style="fill:#f29201"/><path d="M148.88,398.36l-.11,3.4,1.66,5.61s-1.62.59-1.66,1.4-.85,2.51,2.4,3,5-.07,5.39-1.62-2.37-11.22-2.37-11.22Z" transform="translate(-40.39 -172.6)" style="fill:#f29201"/><path d="M155.1,398.36l-.1,3.4,1.65,5.61s-1.61.59-1.65,1.4-.86,2.51,2.39,3,5-.07,5.39-1.62-2.36-11.22-2.36-11.22Z" transform="translate(-40.39 -172.6)" style="fill:#f29201"/><path d="M272.47,393a7.09,7.09,0,0,1-4.06-12.9c3.79-2.67,14.19-12.08,12.55-20.26-.33-.4-4-4.39-24.06-5.23a220,220,0,0,0-24,.47A7.09,7.09,0,1,1,231.72,341a221.54,221.54,0,0,1,27.58-.43c13.91.74,32.73,3.23,35.5,16.26,4.08,19.16-17.38,34.31-18.3,34.95a7.08,7.08,0,0,1-4,1.26" transform="translate(-40.39 -172.6)" style="fill:#f29201"/><path d="M232.93,355.12,231.72,341a217.8,217.8,0,0,1,30-.28l-1,14.14a209.09,209.09,0,0,0-27.82.26" transform="translate(-40.39 -172.6)" style="fill:#e9511d"/><path d="M265.49,380.75a23.08,23.08,0,0,0-9.93,10.63c-1.34,3.13,2.57,7.5,2.57,7.5Z" transform="translate(-40.39 -172.6)" style="fill:#e9511d"/><path d="M280.66,401.76c2.11-3.94,7.22-15.13.95-21a18.94,18.94,0,0,0-15.29-.33,11.15,11.15,0,0,0-6.95,8.56c-1.07,6.45-6.93,19.3-7.49,25.88a2.51,2.51,0,0,0,4.86,1.07s0-.07,0-.11c1.24-3.87,3.52-10.16,4.46-13.08s6.55-1.33,6.55-1.33L278.28,403a2.31,2.31,0,0,0,2.38-1.19" transform="translate(-40.39 -172.6)" style="fill:#f29201"/><path d="M280.55,398.36l.11,3.4L279,407.37s1.62.59,1.66,1.4.85,2.51-2.4,3-5-.07-5.39-1.62,2.36-11.22,2.36-11.22Z" transform="translate(-40.39 -172.6)" style="fill:#f29201"/><path d="M274.33,398.36l.11,3.4-1.66,5.61s1.61.59,1.66,1.4.85,2.51-2.4,3-5-.07-5.39-1.62S269,398.88,269,398.88Z" transform="translate(-40.39 -172.6)" style="fill:#f29201"/><path d="M268.1,398.36l.11,3.4-1.66,5.61s1.62.59,1.66,1.4.85,2.51-2.4,3-5-.07-5.39-1.62,2.37-11.22,2.37-11.22Z" transform="translate(-40.39 -172.6)" style="fill:#f29201"/><path d="M180.66,439.09,191,342.28l33-34.34s24.84,95.57,14.9,126.45Z" transform="translate(-40.39 -172.6)" style="fill:#fff"/><path d="M191,342.28l-2.14,17.51c10.15-1,20.18-4.12,28.62-10.76,0,0,8.87,58.34.18,86.94L239,434.39c9.94-30.88-14.9-126.45-14.9-126.45Z" transform="translate(-40.39 -172.6)" style="fill:#cee9f8"/><path d="M244.88,297.93l1,16s9,2.67,12.1-7.28c1.66-5.43-2.25-13.22-13.12-8.68" transform="translate(-40.39 -172.6)" style="fill:#f39200"/><path d="M247.3,300.82l.63,9.9s5.61,1.65,7.5-4.52c1-3.36-1.4-8.2-8.13-5.38" transform="translate(-40.39 -172.6)" style="fill:#e94e1b"/><path d="M262.79,336.88A24.51,24.51,0,0,0,260,323.14a20.59,20.59,0,0,0-8.76-18,10.5,10.5,0,0,0,3.51-5.62c1.27-5.35-.88-13.5-5.85-17.69,2.1-1.81,0-4.53.29-7.51.1-1.1,2-.7,1.77-1.73,2.65-1,3.37-3.39,3.76-7.68.44-4.87-3.87-8.37-8.13-10.21a14.57,14.57,0,0,0-13.24-14.9c-4.63-.42-9.23,2-12.19,5.11C220,240,216,233.64,206.6,232.79c-11.52-1-22.1,1.8-23.14,13.31a21.67,21.67,0,0,0-.07,2.54,13.79,13.79,0,0,0-1.94-.33,14.31,14.31,0,0,0-15.55,13.21c-.49,5.39,5.63,10.44,8.46,11-2.7,3.14-3.48,14.89-3.88,19.33a20.55,20.55,0,0,0,1.46,9.69,20.59,20.59,0,0,0-5.34,35.84,20.6,20.6,0,0,0,25.92,24.7A24.54,24.54,0,0,0,227,375c.28,0,.55.09.83.12a20.63,20.63,0,0,0,22.42-18.68c0-.1,0-.21,0-.32a24.57,24.57,0,0,0,12.53-19.25" transform="translate(-40.39 -172.6)" style="fill:#6e3784"/><path d="M237.71,326.48a12.13,12.13,0,0,0,3-1.51c3.68-2.69,10.06-9-.63-14.46,0,0,4.06-16.16-.43-21.55s-11.21-1.82-15.25-2.19-11-11.75-20.88-3.49c-21.81,27.43-2,23.05-.92,31.73,1.1,9.1-2.47,13.67,1.13,22.87,6.78,17.35,25,23.38,26.94,1.65,0,0,1.2-8.1,2.42-10s4.61-3.07,4.61-3.07" transform="translate(-40.39 -172.6)" style="fill:#f39200"/><path d="M206.3,335.05c-3.6-9.19,0-13.76-1.13-22.87-1-8.45-19.83-4.53-.71-29.63-.31.23-.62.47-.93.73-21.81,27.43-2,23.05-.92,31.73,1.1,9.1-2.47,13.67,1.13,22.87,5.63,14.4,19,21,24.65,10.42-6.28,4-17.21-.78-22.09-13.25" transform="translate(-40.39 -172.6)" style="fill:#e94e1b"/><path d="M231.62,311.68s3.16,7.91,6.57,8.22,6.92-5.5,6.92-5.5-2.38-3.35-13.49-2.72" transform="translate(-40.39 -172.6)" style="fill:#29235c"/><path d="M249,281.79l-76.73,1a2.67,2.67,0,0,1-2.71-2.63l-.06-5a2.66,2.66,0,0,1,2.63-2.71l76.73-1a2.67,2.67,0,0,1,2.7,2.63l.07,5a2.67,2.67,0,0,1-2.63,2.7" transform="translate(-40.39 -172.6)" style="fill:#009fe3"/><path d="M249.9,278.61l-78.71,1.07a1.69,1.69,0,0,1-1.71-1.66v-.62a1.68,1.68,0,0,1,1.66-1.7l78.71-1.07a1.68,1.68,0,0,1,1.7,1.66v.62a1.67,1.67,0,0,1-1.65,1.7" transform="translate(-40.39 -172.6)" style="fill:#fff"/><polygon points="166.14 116.12 185.73 112.65 182.7 117.24 166.14 116.12" style="fill:#29235c"/><polygon points="193.32 120.17 191.78 124.47 200.34 127.19 193.32 120.17" style="fill:#29235c"/><path d="M182,289.35l-4.4,15.47s-11.33.81-13-9.56c-.9-5.67,5.32-12.54,17.37-5.91" transform="translate(-40.39 -172.6)" style="fill:#f39200"/><path d="M179,291.37l-3,10.42s-7.63.55-8.74-6.44c-.6-3.81,3.59-8.44,11.7-4" transform="translate(-40.39 -172.6)" style="fill:#e94e1b"/><path d="M241.23,311.14q-.54-.31-1.14-.63l.16-.69c-21.13-4-30.21-.58-30.21-.58a107.71,107.71,0,0,1,31.19,1.9" transform="translate(-40.39 -172.6)" style="fill:#e94e1b"/><path d="M237.19,303.19a3.27,3.27,0,1,0-3.56,3,3.27,3.27,0,0,0,3.56-3" transform="translate(-40.39 -172.6)" style="fill:#29235c"/><path d="M218.06,298.53a4,4,0,1,0-4.31,3.59,4,4,0,0,0,4.31-3.59" transform="translate(-40.39 -172.6)" style="fill:#29235c"/><g id="bouche"><path d="M232.52,330.81a34.27,34.27,0,0,1-1.7,6.16c-1.49,3.71-5.4,3.15-11.08.26s-10.11-8.84-9.86-12.91,2.32-5.94,5.19-5.76,6.82,4.66,16.45,7.1a14.4,14.4,0,0,0,7.9.09,17.78,17.78,0,0,1-3,2.33Z" transform="translate(-40.39 -172.6)" style="fill:#e94e1b"/><path d="M235.26,327.7s-8.65-.7-14-4.48-9.76-4.05-10.08,1.18,8.21,11.71,14,13.32,5.16-3.44,5.16-3.44l1-4.4Z" transform="translate(-40.39 -172.6)" style="fill:#fff"/></g></g><path id="encoche" d="M71.26,440.4a170.09,170.09,0,0,0,278.42,0Z" transform="translate(-40.39 -172.6)" style="fill:#c9b918"/><g id="logo_udl"><path d="M202.17,466.81v6.48a3.11,3.11,0,0,1-.85,2.35,2.79,2.79,0,0,1-2.11.83,2.86,2.86,0,0,1-2.14-.83,3.16,3.16,0,0,1-.84-2.35v-6.48H198v6.48a2,2,0,0,0,.34,1.28,1,1,0,0,0,.88.42,1,1,0,0,0,.87-.4,2,2,0,0,0,.33-1.3v-6.48Z" transform="translate(-40.39 -172.6)" style="fill:#fff"/><polygon points="169.63 303.73 167.87 303.73 165.11 297.64 165.07 297.65 165.07 303.73 163.3 303.73 163.3 294.21 165.07 294.21 167.84 300.29 167.87 300.28 167.87 294.21 169.63 294.21 169.63 303.73" style="fill:#fff"/><rect x="171.41" y="294.21" width="1.76" height="9.52" style="fill:#fff"/><polygon points="177.68 301.3 177.75 301.66 177.79 301.66 177.85 301.32 179.36 294.21 181.22 294.21 178.69 303.73 176.85 303.73 174.32 294.21 176.18 294.21 177.68 301.3" style="fill:#fff"/><polygon points="187.09 299.55 184.06 299.55 184.06 302.25 187.63 302.25 187.63 303.73 182.28 303.73 182.28 294.21 187.62 294.21 187.62 295.69 184.06 295.69 184.06 298.07 187.09 298.07 187.09 299.55" style="fill:#fff"/><path d="M231.15,472.54v3.79h-1.77v-9.51h3a2.83,2.83,0,0,1,2.09.74,2.72,2.72,0,0,1,.76,2.06,2.52,2.52,0,0,1-.31,1.29,2.28,2.28,0,0,1-.93.86,1.78,1.78,0,0,1,1,.82,3.1,3.1,0,0,1,.3,1.44v.67a4.14,4.14,0,0,0,.09.84,1.2,1.2,0,0,0,.3.65v.14h-1.82a1.07,1.07,0,0,1-.28-.68c0-.31-.05-.63-.05-1V474a1.92,1.92,0,0,0-.28-1.1.92.92,0,0,0-.79-.4Zm0-1.48h1.18a1,1,0,0,0,.82-.35,1.51,1.51,0,0,0,.28-1,1.69,1.69,0,0,0-.28-1,.94.94,0,0,0-.81-.39h-1.19Z" transform="translate(-40.39 -172.6)" style="fill:#fff"/><path d="M240.82,473.85a1.32,1.32,0,0,0-.27-.88,2.84,2.84,0,0,0-1-.64,6.3,6.3,0,0,1-2.11-1.17,2.42,2.42,0,0,1-.71-1.85,2.45,2.45,0,0,1,.82-1.9,3,3,0,0,1,2.1-.74,2.85,2.85,0,0,1,2.1.82,2.73,2.73,0,0,1,.78,2.07v0h-1.72a1.69,1.69,0,0,0-.31-1.06,1,1,0,0,0-.87-.4,1.06,1.06,0,0,0-.83.33,1.29,1.29,0,0,0-.29.85,1,1,0,0,0,.33.78,4.78,4.78,0,0,0,1.14.67,4.85,4.85,0,0,1,1.93,1.16,2.67,2.67,0,0,1,.65,1.9,2.47,2.47,0,0,1-.78,1.94,3,3,0,0,1-2.08.7,3.37,3.37,0,0,1-2.24-.79,2.74,2.74,0,0,1-.92-2.28l0,0h1.72a1.84,1.84,0,0,0,.35,1.26,1.38,1.38,0,0,0,1.07.39,1,1,0,0,0,.83-.31,1.27,1.27,0,0,0,.27-.85" transform="translate(-40.39 -172.6)" style="fill:#fff"/><rect x="203.71" y="294.21" width="1.76" height="9.52" style="fill:#fff"/><polygon points="212.4 295.69 210.36 295.69 210.36 303.73 208.59 303.73 208.59 295.69 206.57 295.69 206.57 294.21 212.4 294.21 212.4 295.69" style="fill:#fff"/><path d="M254,466.81v9.52h5.34v-1.48h-3.57v-2.7h3v-1.48h-3v-2.38h3.56v-1.48Zm2.7-2.42-1.09,1.74H257l1.55-1.7,0,0Z" transform="translate(-40.39 -172.6)" style="fill:#fff"/><path d="M196.22,487.75v-9.53H199a2.83,2.83,0,0,1,2.29,1.11,4.34,4.34,0,0,1,.91,2.86v1.6a4.33,4.33,0,0,1-.91,2.85,2.83,2.83,0,0,1-2.29,1.11Zm1.77-8v6.55h.87a1.27,1.27,0,0,0,1.14-.68,3.57,3.57,0,0,0,.4-1.79v-1.62a3.57,3.57,0,0,0-.4-1.79,1.26,1.26,0,0,0-1.14-.67Z" transform="translate(-40.39 -172.6)" style="fill:#fff"/><polygon points="168.11 310.96 165.07 310.96 165.07 313.66 168.64 313.66 168.64 315.14 163.3 315.14 163.3 305.62 168.63 305.62 168.63 307.1 165.07 307.1 165.07 309.48 168.11 309.48 168.11 310.96" style="fill:#fff"/><polygon points="174.93 313.66 178.01 313.66 178.01 315.14 173.16 315.14 173.16 305.62 174.93 305.62 174.93 313.66" style="fill:#fff"/><polygon points="180.56 309.7 180.6 309.7 182.11 305.62 184.03 305.62 181.44 311.76 181.44 315.14 179.68 315.14 179.68 311.64 177.14 305.62 179.07 305.62 180.56 309.7" style="fill:#fff"/><path d="M231.21,484.32a3.76,3.76,0,0,1-.86,2.62,3,3,0,0,1-2.3.94,2.93,2.93,0,0,1-2.29-.94,3.76,3.76,0,0,1-.86-2.62v-2.66a3.76,3.76,0,0,1,.86-2.62,2.9,2.9,0,0,1,2.28-1,3,3,0,0,1,2.3,1,3.72,3.72,0,0,1,.87,2.62Zm-1.75-2.68a2.81,2.81,0,0,0-.36-1.55,1.22,1.22,0,0,0-1.06-.52,1.16,1.16,0,0,0-1,.52,2.8,2.8,0,0,0-.35,1.55v2.68a2.74,2.74,0,0,0,.36,1.56,1.18,1.18,0,0,0,1,.52,1.22,1.22,0,0,0,1-.52,2.83,2.83,0,0,0,.36-1.56Z" transform="translate(-40.39 -172.6)" style="fill:#fff"/><polygon points="198.69 315.14 196.93 315.14 194.16 309.05 194.13 309.07 194.13 315.14 192.35 315.14 192.35 305.62 194.13 305.62 196.89 311.7 196.93 311.69 196.93 305.62 198.69 305.62 198.69 315.14" style="fill:#fff"/><path d="M188.6,478.23v8a10.39,10.39,0,0,1-10.37,10.37h-.13a10.39,10.39,0,0,1-10.37-10.37v-8h-1.91v8a12.29,12.29,0,0,0,12.28,12.27h.13a12.29,12.29,0,0,0,12.28-12.27v-8Z" transform="translate(-40.39 -172.6)" style="fill:#fff"/><path d="M184.77,478.23v7.95a6.55,6.55,0,0,1-6.54,6.54h-.13a6.54,6.54,0,0,1-6.54-6.54v-7.95h-1.93v7.95a8.48,8.48,0,0,0,8.46,8.47h.12a8.48,8.48,0,0,0,8.47-8.47v-7.95Z" transform="translate(-40.39 -172.6)" style="fill:#fff"/><path d="M180.92,478.23c0,3.53,0,7.88,0,7.89a2.76,2.76,0,0,1-2.73,2.76h0a2.77,2.77,0,0,1-2.74-2.76v-7.89h-1.93c0,3.53,0,7.88,0,7.89a4.68,4.68,0,0,0,4.67,4.68h0a4.68,4.68,0,0,0,4.67-4.68s0-4.36,0-7.89Z" transform="translate(-40.39 -172.6)" style="fill:#fff"/><rect x="125.47" y="301.83" width="24.65" height="1.9" style="fill:#fff"/><rect x="125.47" y="298.03" width="24.65" height="1.9" style="fill:#fff"/><path d="M191.1,456.62a.69.69,0,0,0-.12-.16c-.08-.09-.28-.21-.38-.31s-.21-.25-.26-.28-.17-.23-.22-.27-.12-.33-.13-.36a.27.27,0,0,0-.12-.17,1.78,1.78,0,0,1-.27-.18l-.31-.29a3.25,3.25,0,0,0-.14-.55c-.09-.19-.13-.26-.17-.33a.76.76,0,0,1-.08-.2.41.41,0,0,0-.23.06,4.32,4.32,0,0,0-.46-.31,2.76,2.76,0,0,0-.62-.3.76.76,0,0,1-.31-.17,1.27,1.27,0,0,0-.3,0l-.58.07c-.16,0-.57.09-.67.09a4.25,4.25,0,0,0-.54.09,2.78,2.78,0,0,0-.31.07,2.66,2.66,0,0,1-.51.15c-.2,0-.4,0-.63.07s-.5.17-.69.22l-.19,0s0,.13.14.15a.49.49,0,0,1-.19.19,3.73,3.73,0,0,1-.43.18,2.51,2.51,0,0,0-.53.23.48.48,0,0,0,.17.17s0,0-.13.09-.49.23-.65.3-.38.2-.49.25l-.31.18c-.14.08-.07.08-.07.08l.17,0a.32.32,0,0,1,.16.05s0,.05-.06.12a3.25,3.25,0,0,1-.42.37l-.36.27c-.14.1-.27.26-.32.29l.14.13,0,.1a1.33,1.33,0,0,1-.24.12,9.88,9.88,0,0,1-2.18.16c-1.84,0-2.35-.26-3.29-.3a6.78,6.78,0,0,0-2.5.42l-.4.16a6.26,6.26,0,0,0-1.07.3c-1.19.46-3.28,2.19-3.87,2.44a2.25,2.25,0,0,1-1.31.2,1.53,1.53,0,0,1-.57-.15,2.05,2.05,0,0,0-.45-.63,5.69,5.69,0,0,0-1.08-.5,1.47,1.47,0,0,0,.14,1c.33.59,1,.55,1.2.65a3.32,3.32,0,0,0,2.21,0,18.66,18.66,0,0,0,2-1.09,6.08,6.08,0,0,1,2.1-.64c0,.12-.07.25-.11.36a14,14,0,0,1-1.09,2.12c-.18.25-.87,1.09-1,1.19a1.73,1.73,0,0,1-.79.29c-.4.08-1.57.2-1.57.2a11,11,0,0,1-.46,1.67c-.1.26-.35.77-.35.77a2.32,2.32,0,0,1,.57.92,1.62,1.62,0,0,0,.27.41v1.81h0v.05h24.65v-1.9h0c.05-.15.12-.47-.17-.61s-.07-.31-.92-.64a3.76,3.76,0,0,1-.79-.33c-.14-.12-.88-1.15-1.25-1.58s-1.12-1.44-1.12-1.44l-.17-.4,0-.3a1,1,0,0,0,.14-.15,2.67,2.67,0,0,0,.4-.48c.14-.28.09,0,.18-.16a1.51,1.51,0,0,1,.42-.32,1.58,1.58,0,0,0,.26-.25.59.59,0,0,0,0,.22,2,2,0,0,0,.19-.2c.11-.15.07-.16.22-.31a2.38,2.38,0,0,0,.33-.61,1.58,1.58,0,0,1,.18-.27s.06.14.1.25a.67.67,0,0,0,.13-.19c0-.09.07-.2.13-.31s.11-.24.18-.27a1.17,1.17,0,0,1,.32-.11,1.73,1.73,0,0,1,.35.08c.12,0,.17,0,.25.08a.76.76,0,0,0,.18.16s0,0,.1-.07l.19-.11c.09-.06.07-.1.14-.16a.39.39,0,0,0,.14-.26c0-.11,0-.18,0-.24s.17-.06.23-.19,0-.16.06-.19,0-.12,0-.12a.66.66,0,0,0,.19-.24.31.31,0,0,1,.09-.2.54.54,0,0,0-.25-.29m-12.84,6.28c.17.08.6.26,1.07.44a1.18,1.18,0,0,1,.06.54,3.24,3.24,0,0,1-.65,1.38,8.42,8.42,0,0,0,.4.86,3.46,3.46,0,0,1,.46.52l.09.19H178a.37.37,0,0,0-.16-.36c-.09-.09-.17-.27-.39-.35-.78-.28-.77-.17-1-.35a2.93,2.93,0,0,1-.62-.53,4.48,4.48,0,0,1-.25-1.49c0-.37,0-.72,0-.94a4.94,4.94,0,0,1,2.71.09m-11.5,1.64c.25-.1.8.11,1.35,0a12.63,12.63,0,0,0,2.45-.76,7.73,7.73,0,0,0,1.23-1,1.1,1.1,0,0,1,.41-.22s.25.26.74.69.66.64.83.78a1.76,1.76,0,0,1,.4.55,3.93,3.93,0,0,1,.09,1.16,4.33,4.33,0,0,1,1,.49,1.78,1.78,0,0,1,.39.54h-7.85a.44.44,0,0,0-.25-.52,3.47,3.47,0,0,0-.6-.32.51.51,0,0,1-.37-.36,2.35,2.35,0,0,1-.08-.61s0-.39.25-.48m19.52.74a3,3,0,0,1,1,.57,2.65,2.65,0,0,0,.84.38.91.91,0,0,1,.51.28c.22.2.29.28.42.32h-7.29a.37.37,0,0,0-.15-.42c-.11-.06-.21-.19-.34-.25-.51-.24-.56-.16-.77-.32s-.2-.48-.2-.48.92-.9,1.1-1.13.31-.4.41-.55a5.65,5.65,0,0,0,1.66-.33l.2-.11.21.12c.37.22,1.3.61,1.62.87a5.26,5.26,0,0,1,.8,1" transform="translate(-40.39 -172.6)" style="fill:#fff"/></g></g></svg>